<svg width="70" height="70" viewBox="0 0 70 70" fill="none" xmlns="http://www.w3.org/2000/svg">
<g clip-path="url(#clip0_215_8)">
<path d="M10.9379 2.1875C10.9379 1.60734 11.1684 1.05094 11.5786 0.640704C11.9889 0.230468 12.5453 0 13.1254 0L56.8754 0C57.4556 0 58.012 0.230468 58.4222 0.640704C58.8325 1.05094 59.0629 1.60734 59.0629 2.1875C59.0629 4.54125 59.0104 6.78125 58.9142 8.9075C60.6429 9.19376 62.2968 9.82327 63.7783 10.7589C65.2598 11.6946 66.539 12.9174 67.5404 14.3553C68.5418 15.7932 69.2452 17.4171 69.609 19.1311C69.9728 20.8452 69.9897 22.6147 69.6587 24.3354C69.3277 26.0561 68.6555 27.6931 67.6818 29.1499C66.708 30.6067 65.4524 31.8537 63.989 32.8175C62.5257 33.7813 60.8841 34.4423 59.1612 34.7615C57.4383 35.0807 55.6689 35.0518 53.9573 34.6763C50.5011 42.8356 45.7411 46.8256 41.5629 47.8494V57.3562L47.7973 58.9137C48.6461 59.1237 49.4467 59.5044 50.1467 60.0294L58.1879 66.0625C58.5552 66.338 58.8265 66.722 58.9634 67.1603C59.1003 67.5985 59.0959 68.0687 58.9507 68.5042C58.8055 68.9398 58.527 69.3186 58.1545 69.5871C57.782 69.8555 57.3346 70 56.8754 70H13.1254C12.6663 70 12.2188 69.8555 11.8464 69.5871C11.4739 69.3186 11.1954 68.9398 11.0502 68.5042C10.905 68.0687 10.9005 67.5985 11.0374 67.1603C11.1743 66.722 11.4456 66.338 11.8129 66.0625L19.8542 60.0294C20.5542 59.5044 21.3548 59.1237 22.2036 58.9137L28.4379 57.3562V47.8494C24.2598 46.8256 19.4998 42.8356 16.0436 34.6719C14.3311 35.0494 12.5604 35.08 10.836 34.7618C9.11152 34.4435 7.46833 33.783 6.00343 32.8191C4.53854 31.8552 3.28164 30.6076 2.30697 29.1499C1.3323 27.6921 0.659617 26.0539 0.328658 24.3318C-0.0023016 22.6098 0.0151687 20.8389 0.380037 19.1237C0.744906 17.4085 1.44977 15.7839 2.45301 14.3456C3.45625 12.9074 4.73752 11.6848 6.22115 10.75C7.70478 9.81527 9.36068 9.18726 11.0911 8.90313C10.9881 6.66607 10.937 4.42692 10.9379 2.1875ZM11.3711 13.3C9.08813 13.7177 7.06464 15.0252 5.74573 16.9349C4.42682 18.8445 3.92054 21.1999 4.33825 23.4828C4.75597 25.7657 6.06347 27.7892 7.97311 29.1081C9.88276 30.4271 12.2381 30.9333 14.5211 30.5156C13.0642 25.9219 11.9486 20.2519 11.3711 13.3ZM55.4842 30.5156C57.7671 30.9333 60.1225 30.4271 62.0321 29.1081C63.9418 27.7892 65.2493 25.7657 65.667 23.4828C66.0847 21.1999 65.5784 18.8445 64.2595 16.9349C62.9406 15.0252 60.9171 13.7177 58.6342 13.3C58.0523 20.2563 56.9367 25.9219 55.4842 30.5156Z" fill="#FFAA04" fill-opacity="0.65"/>
<path d="M28.768 38.8V35.6H34.488V15.4L29.128 19.44L27.168 16.76L35.448 10.8H38.088V35.6H42.848V38.8H28.768Z" fill="black" fill-opacity="0.4"/>
</g>
<defs>
<clipPath id="clip0_215_8">
<rect width="70" height="70" fill="white"/>
</clipPath>
</defs>
</svg>
