<svg width="242" height="241" viewBox="0 0 242 241" fill="none" xmlns="http://www.w3.org/2000/svg">
<g clip-path="url(#clip0_33_581)">
<path d="M109.475 0.596065C15.7356 9.44857 -34.7233 120.677 27.3711 196.625C56.0667 231.856 103.985 249.283 151.216 237.164C176.519 230.663 198.397 216.241 213.982 197.474C282.042 115.956 217.932 -9.71008 109.475 0.596065Z" fill="url(#paint0_radial_33_581)"/>
<path d="M120.865 207.748C87.9084 207.748 59.1964 189.553 44.3324 162.685C11.5399 103.445 56.771 31.5307 122.799 33.6376C164.801 34.487 200.281 65.3401 207.05 106.369C215.932 159.32 174.88 207.748 120.865 207.748Z" fill="url(#paint1_radial_33_581)"/>
<g opacity="0.75">
<path d="M155.559 134.756C151.937 133.857 150.937 138.349 152.986 139.362C155.034 140.391 160.18 143.461 161.213 141.403C162.245 139.362 159.672 135.785 155.559 134.756Z" fill="#056DB1"/>
<path d="M191.531 96.863C188.024 97.6633 183.828 99.4273 187.417 101.992C191.023 104.556 196.66 103.527 197.185 100.456C197.693 97.3693 198.217 95.3277 191.531 96.863Z" fill="#056DB1"/>
<path d="M121.128 179.312C113.589 174.804 102.625 173.171 101.593 177.777C100.561 182.383 107.755 189.553 116.49 188.524C125.241 187.511 126.274 182.383 121.128 179.312Z" fill="#056DB1"/>
<path d="M145.709 204.171C138.908 206.18 131.763 207.389 124.372 207.666C126.06 197.001 136.237 200.366 141.678 201.836C143.268 202.277 144.595 203.142 145.709 204.171Z" fill="#056DB1"/>
<path d="M73.3397 178.806C76.6665 180.26 78.9936 173.171 74.3722 167.03C69.7507 160.889 67.6858 153.196 62.0319 151.66C56.3781 150.125 53.2971 170.1 73.3397 178.806Z" fill="#056DB1"/>
<path d="M50.7241 153.702C48.9051 154.029 48.1512 157.801 52.2646 158.308C56.378 158.83 56.378 152.689 50.7241 153.702Z" fill="#056DB1"/>
<path d="M96.4633 132.714C92.8415 132.387 89.2689 134.249 89.777 138.349C90.285 142.449 95.9389 138.349 98.5118 138.349C101.085 138.349 102.117 133.22 96.4633 132.714Z" fill="#056DB1"/>
<path d="M131.927 85.0869C128.813 83.6169 128.322 90.2155 130.895 91.2281C133.468 92.2571 140.662 89.1701 131.927 85.0869Z" fill="#056DB1"/>
</g>
<path d="M99.0362 118.374C81.5665 121.444 78.9936 121.951 63.0644 135.278C52.5268 144.082 41.5304 141.24 35.3029 138.3C34.1394 132.616 33.5166 126.72 33.5166 120.677C33.5166 95.9157 43.8903 73.5558 60.5406 57.7128C63.9657 59.7381 67.5055 62.482 70.2587 66.1406C77.9611 76.3814 76.4206 80.481 99.0362 92.2571C121.635 104.033 116.506 115.303 99.0362 118.374Z" fill="url(#paint2_linear_33_581)"/>
<path d="M199.822 83.3718C183.697 80.0072 172.7 98.1859 161.72 96.8629C148.872 95.3276 152.477 76.3813 141.677 56.406C136.269 46.4102 135.892 39.485 136.859 35.0751C164.768 40.2036 188.007 58.562 199.822 83.3718Z" fill="url(#paint3_linear_33_581)"/>
<path d="M208.23 120.677C208.23 154.47 188.925 183.755 160.704 198.193C154.264 188.05 164.703 180.521 177.142 172.665C192.563 162.93 178.174 158.831 180.731 142.955C183.304 127.079 173.536 126.05 178.158 112.739C181.452 103.233 198.626 112.249 208.181 118.194C208.213 119.011 208.23 119.844 208.23 120.677Z" fill="url(#paint4_linear_33_581)"/>
<path d="M126.273 147.055C116.932 149.945 111.884 138.855 100.069 141.42C88.2527 143.984 78.4854 164.972 94.4146 164.466C110.344 163.959 114.457 161.901 126.273 170.1C138.089 178.3 151.97 172.665 156.083 159.86C160.18 147.055 157.607 137.32 126.273 147.055Z" fill="url(#paint5_linear_33_581)"/>
<path d="M145.792 108.639C140.875 110.207 139.63 112.739 141.17 115.809C142.711 118.88 148.873 118.374 151.953 122.98C155.034 127.586 162.753 133.22 164.802 122.98C166.867 112.739 157.099 105.046 145.792 108.639Z" fill="url(#paint6_linear_33_581)"/>
<path opacity="0.5" d="M127.814 82C126.896 88.8272 120.619 82 110.344 79.9584C100.069 77.9167 95.9554 71.7592 100.577 67.6596C105.198 63.56 111.36 60.4894 117.539 64.0663C123.7 67.6596 128.83 74.3235 127.814 82Z" fill="#056DB1"/>
<path d="M117.014 41.5431C104.166 41.5431 98.0042 48.7133 86.1883 52.8129C79.1415 55.2465 73.5695 52.4209 70.21 49.7422C84.5004 39.5831 101.986 33.6052 120.882 33.6052C121.537 33.6052 122.177 33.6052 122.816 33.6379C123.717 37.3291 123.389 41.5431 117.014 41.5431Z" fill="url(#paint7_linear_33_581)"/>
<path opacity="0.45" d="M204.067 147.315C196.939 169.447 181.157 187.723 160.704 198.193C155.936 200.626 150.921 202.635 145.709 204.187C138.908 206.196 131.763 207.405 124.372 207.682C123.209 207.731 122.045 207.748 120.865 207.748C87.9087 207.748 59.1967 189.553 44.3327 162.685C40.1702 155.172 37.0892 146.972 35.3029 138.3C34.1394 132.616 33.5166 126.72 33.5166 120.676C33.5166 110.158 35.3849 100.08 38.81 90.7542C48.692 120.17 71.3076 158.128 122.717 165.167C132.746 166.539 142.12 166.719 150.872 165.968C172.34 164.089 190.006 156.609 204.067 147.315Z" fill="url(#paint8_linear_33_581)"/>
<path opacity="0.45" d="M208.229 120.676C208.229 129.97 206.771 138.92 204.067 147.315C196.938 169.447 181.156 187.723 160.704 198.193C155.935 200.626 150.92 202.635 145.709 204.187C138.908 206.196 131.762 207.405 124.371 207.682C123.208 207.731 122.044 207.748 120.864 207.748C87.908 207.748 59.196 189.553 44.332 162.685C59.4418 168.875 77.436 173.105 98.7732 173.938C119.471 174.755 136.646 171.57 150.871 165.951C181.451 153.898 198.495 130.574 207.738 111.366C207.983 113.604 208.131 115.891 208.197 118.177C208.213 119.01 208.229 119.843 208.229 120.676Z" fill="url(#paint9_linear_33_581)"/>
<path d="M207.066 106.417C207.066 106.417 194.628 61.0116 137.433 46.0669C103.149 37.1001 79.3537 45.1849 65.8008 53.0901C109.082 17.8761 175.273 31.8572 199.823 83.3716C205.526 95.311 206.656 104.752 207.066 106.417Z" fill="url(#paint10_linear_33_581)"/>
</g>
<defs>
<radialGradient id="paint0_radial_33_581" cx="0" cy="0" r="1" gradientUnits="userSpaceOnUse" gradientTransform="translate(120.995 120.505) scale(104.389 104.039)">
<stop stop-color="#90DD6F"/>
<stop offset="1" stop-color="#B8FFA9" stop-opacity="0"/>
</radialGradient>
<radialGradient id="paint1_radial_33_581" cx="0" cy="0" r="1" gradientUnits="userSpaceOnUse" gradientTransform="translate(125.202 86.6027) scale(106.022 105.665)">
<stop stop-color="#00B3DC"/>
<stop offset="1" stop-color="#056DB0"/>
</radialGradient>
<linearGradient id="paint2_linear_33_581" x1="63.4665" y1="-13.561" x2="83.3733" y2="236.879" gradientUnits="userSpaceOnUse">
<stop stop-color="#F2F236"/>
<stop offset="1" stop-color="#F2F236" stop-opacity="0"/>
</linearGradient>
<linearGradient id="paint3_linear_33_581" x1="161.496" y1="-21.3533" x2="181.403" y2="229.087" gradientUnits="userSpaceOnUse">
<stop stop-color="#F2F236"/>
<stop offset="1" stop-color="#F2F236" stop-opacity="0"/>
</linearGradient>
<linearGradient id="paint4_linear_33_581" x1="169.28" y1="-21.972" x2="189.186" y2="228.468" gradientUnits="userSpaceOnUse">
<stop stop-color="#F2F236"/>
<stop offset="1" stop-color="#F2F236" stop-opacity="0"/>
</linearGradient>
<linearGradient id="paint5_linear_33_581" x1="108.067" y1="-17.1062" x2="127.973" y2="233.334" gradientUnits="userSpaceOnUse">
<stop stop-color="#F2F236"/>
<stop offset="1" stop-color="#F2F236" stop-opacity="0"/>
</linearGradient>
<linearGradient id="paint6_linear_33_581" x1="141.893" y1="-19.7953" x2="161.8" y2="230.646" gradientUnits="userSpaceOnUse">
<stop stop-color="#F2F236"/>
<stop offset="1" stop-color="#F2F236" stop-opacity="0"/>
</linearGradient>
<linearGradient id="paint7_linear_33_581" x1="91.9945" y1="-15.8288" x2="111.901" y2="234.612" gradientUnits="userSpaceOnUse">
<stop stop-color="#F2F236"/>
<stop offset="1" stop-color="#F2F236" stop-opacity="0"/>
</linearGradient>
<linearGradient id="paint8_linear_33_581" x1="107.586" y1="233.395" x2="120.603" y2="114.316" gradientUnits="userSpaceOnUse">
<stop stop-color="#00ACD8"/>
<stop offset="1" stop-color="#0983BD"/>
</linearGradient>
<linearGradient id="paint9_linear_33_581" x1="116.395" y1="228.276" x2="130.943" y2="103.818" gradientUnits="userSpaceOnUse">
<stop stop-color="#056EB1"/>
<stop offset="1" stop-color="#00A9D7" stop-opacity="0.3"/>
</linearGradient>
<linearGradient id="paint10_linear_33_581" x1="184.311" y1="-14.3485" x2="129.62" y2="93.8641" gradientUnits="userSpaceOnUse">
<stop stop-color="#E2FFB5"/>
<stop offset="1" stop-color="#FFFFB3" stop-opacity="0"/>
</linearGradient>
<clipPath id="clip0_33_581">
<rect width="242" height="241" fill="white"/>
</clipPath>
</defs>
</svg>
