<svg width="242" height="242" viewBox="0 0 242 242" fill="none" xmlns="http://www.w3.org/2000/svg">
<g clip-path="url(#clip0_131_1199)">
<path d="M109.473 0.599056C15.733 9.48954 -34.7246 121.171 27.3746 197.439C56.0597 232.82 103.972 250.321 151.212 238.144C176.514 231.62 198.385 217.142 213.984 198.293C282.043 116.422 217.925 -9.754 109.473 0.599056Z" fill="url(#paint0_radial_131_1199)"/>
<path d="M67.538 193.873C16.9983 156.947 18.5746 80.482 71.1503 45.791C106.83 22.1598 155.186 26.8597 185.661 58.5762C199.683 73.1527 208.78 92.3962 210.52 113.628C216.973 190.734 129.473 239.311 67.538 193.873Z" fill="url(#paint1_radial_131_1199)"/>
<path d="M206.792 94.3024C192.491 94.2531 165.283 91.7552 133.61 76.7844C98.6031 60.2359 69.6224 57.4751 57.2256 57.1464C61.4783 52.923 66.1415 49.1105 71.1659 45.8074C79.4086 46.9906 94.958 50.4252 123.331 59.7922C156.959 70.9012 176.301 64.4264 185.693 58.5926C195.266 68.5512 202.589 80.7284 206.792 94.3024Z" fill="url(#paint2_linear_131_1199)"/>
<path d="M177.845 51.3455C169.996 54.4678 154.562 57.1629 127.946 49.4721C104.646 42.7344 90.8372 40.1215 83.1035 39.1519C87.7339 37.0156 92.5612 35.2736 97.5692 33.9425C104.367 35.7666 113.398 38.5438 125.368 42.7837C149.127 51.1976 164.332 50.0637 172.935 47.5987C174.627 48.7819 176.269 50.0308 177.845 51.3455Z" fill="url(#paint3_linear_131_1199)"/>
<path d="M164.25 42.11C155.252 42.9974 137.978 42.8331 126.402 31.0996C140.064 31.9377 152.904 35.8324 164.25 42.11Z" fill="url(#paint4_linear_131_1199)"/>
<path d="M210.848 121.089C210.848 122.289 210.815 123.488 210.783 124.688C198.747 126.068 174.019 124.737 134.136 104.08C83.6944 77.9678 58.2275 76.4888 41.2988 78.5101C42.2676 76.7024 43.2856 74.9276 44.3857 73.2021C55.6496 71.8053 80.8374 72.1997 122.822 90.6708C174.709 113.497 191.243 118.443 210.553 113.595C210.733 116.077 210.848 118.575 210.848 121.089Z" fill="url(#paint5_linear_131_1199)"/>
<path d="M105.286 104.606C73.7109 90.0298 44.681 94.8612 33.7126 97.6056C31.9722 104.048 30.9377 110.769 30.6914 117.704C91.3785 106.71 135.827 140.743 120.737 143.258C105.286 145.838 98.6031 147.892 74.4006 155.632C56.733 161.285 42.6121 155.928 36.307 152.625C38.7371 159.165 41.906 165.344 45.7318 171.063C77.0605 182.78 102.101 170.389 134.661 160.266C159.963 152.395 184.593 160.661 198.27 167.103C202.868 159.362 206.333 150.866 208.467 141.861C164.594 149.93 142.427 121.746 105.286 104.606Z" fill="url(#paint6_linear_131_1199)"/>
<path d="M86.2394 141.187C76.9787 141.696 71.8229 144.276 57.4065 146.347C50.2968 147.366 41.0689 145.755 33.5323 143.849C32.0874 138.311 31.1679 132.543 30.8066 126.643C73.6291 119.709 94.9582 140.694 86.2394 141.187Z" fill="url(#paint7_linear_131_1199)"/>
<path d="M185.644 183.635C183.543 185.82 181.342 187.891 179.027 189.847C168.042 186.412 155.596 184.259 142.346 184.982C111.789 186.658 93.4972 197.192 67.5213 193.873C65.9778 192.739 64.4672 191.572 63.0059 190.34C73.613 191.769 92.6598 191.079 125.86 181.893C149.176 175.451 169.389 177.932 185.644 183.635Z" fill="url(#paint8_linear_131_1199)"/>
<path d="M164.939 199.69C151.885 207.052 136.796 211.259 120.737 211.259C114.974 211.259 109.342 210.717 103.891 209.681C123.233 188.236 151.426 194.76 164.939 199.69Z" fill="url(#paint9_linear_131_1199)"/>
<path opacity="0.55" d="M201.982 160.118C200.832 162.501 199.584 164.818 198.254 167.086C194.691 173.084 190.455 178.639 185.644 183.635C183.542 185.82 181.342 187.891 179.027 189.846C174.659 193.56 169.947 196.863 164.922 199.69C151.869 207.052 136.779 211.259 120.721 211.259C114.957 211.259 109.325 210.717 103.874 209.682C90.4756 207.151 78.128 201.646 67.5374 193.873C65.9939 192.739 64.4833 191.572 63.022 190.339C56.372 184.785 50.5266 178.294 45.7156 171.047C41.9063 165.328 38.7373 159.149 36.2908 152.608C35.2235 149.749 34.304 146.824 33.5158 143.833C32.0709 138.295 31.1514 132.527 30.7902 126.627C30.7245 125.608 30.6752 124.589 30.6588 123.57C30.626 122.749 30.626 121.911 30.626 121.089C30.626 119.955 30.6424 118.821 30.6916 117.687C30.9544 110.769 31.9888 104.031 33.7129 97.5892C35.519 90.8844 38.0641 84.5082 41.2823 78.51C42.2511 76.7023 43.2691 74.9275 44.3692 73.202C45.4201 71.5422 46.5038 69.9153 47.6532 68.3213C60.362 74.1716 73.3992 86.661 82.8898 111.541C96.5181 147.267 120.967 168.713 148.667 172.871C165.793 175.467 184.166 171.441 201.982 160.118Z" fill="url(#paint10_linear_131_1199)"/>
<path opacity="0.5" d="M210.569 128.188C210.208 132.839 209.486 137.408 208.435 141.845C206.924 148.221 204.757 154.35 201.982 160.118C200.833 162.501 199.585 164.818 198.255 167.086C194.692 173.084 190.455 178.639 185.644 183.635C183.543 185.82 181.342 187.891 179.027 189.847C174.66 193.56 169.947 196.864 164.923 199.69C151.869 207.052 136.779 211.259 120.721 211.259C114.958 211.259 109.326 210.717 103.874 209.682C90.476 207.151 78.1284 201.646 67.5377 193.873C65.9943 192.739 64.4837 191.572 63.0223 190.34C56.3724 184.785 50.527 178.294 45.716 171.047C41.9066 165.328 38.7376 159.149 36.2911 152.608C35.2238 149.749 34.3043 146.824 33.5162 143.833C32.0713 138.295 31.1518 132.527 30.7905 126.627C30.7249 125.608 30.6756 124.589 30.6592 123.571C39.378 143.061 55.1409 161.877 83.1364 172.624C107.06 181.794 129.276 179.954 148.651 172.887C176.088 162.929 197.811 142.551 210.569 128.188Z" fill="url(#paint11_linear_131_1199)" stroke="url(#paint12_radial_131_1199)" stroke-miterlimit="10"/>
<path d="M210.585 127.991C210.552 126.085 209.403 81.5996 156.006 54.4844C92.4947 22.2256 51.774 63.2434 50.8545 64.1801C84.9089 22.2585 148.141 19.5305 185.66 58.5928C203.524 77.1461 212.522 102.24 210.585 127.991Z" fill="url(#paint13_linear_131_1199)"/>
</g>
<defs>
<radialGradient id="paint0_radial_131_1199" cx="0" cy="0" r="1" gradientUnits="userSpaceOnUse" gradientTransform="translate(121.001 120.998) scale(106.11 106.199)">
<stop stop-color="#E5AC77"/>
<stop offset="1" stop-color="#F6B895" stop-opacity="0"/>
</radialGradient>
<radialGradient id="paint1_radial_131_1199" cx="0" cy="0" r="1" gradientUnits="userSpaceOnUse" gradientTransform="translate(131.06 74.2279) scale(106.552 106.642)">
<stop stop-color="#EFA08F"/>
<stop offset="1" stop-color="#C97324"/>
</radialGradient>
<linearGradient id="paint2_linear_131_1199" x1="77.4853" y1="226.052" x2="153.283" y2="17.3966" gradientUnits="userSpaceOnUse">
<stop stop-color="#864313"/>
<stop offset="1" stop-color="#9B4413" stop-opacity="0.1"/>
</linearGradient>
<linearGradient id="paint3_linear_131_1199" x1="66.3658" y1="222.013" x2="142.164" y2="13.3567" gradientUnits="userSpaceOnUse">
<stop stop-color="#863613"/>
<stop offset="1" stop-color="#9B4C13" stop-opacity="0.1"/>
</linearGradient>
<linearGradient id="paint4_linear_131_1199" x1="76.7127" y1="225.769" x2="152.509" y2="17.1155" gradientUnits="userSpaceOnUse">
<stop stop-color="#865113"/>
<stop offset="1" stop-color="#9B3C13" stop-opacity="0.1"/>
</linearGradient>
<linearGradient id="paint5_linear_131_1199" x1="80.4996" y1="227.147" x2="156.297" y2="18.4914" gradientUnits="userSpaceOnUse">
<stop stop-color="#864A13"/>
<stop offset="1" stop-color="#9B3C13" stop-opacity="0.1"/>
</linearGradient>
<linearGradient id="paint6_linear_131_1199" x1="82.2206" y1="227.772" x2="158.018" y2="19.1168" gradientUnits="userSpaceOnUse">
<stop stop-color="#864A13"/>
<stop offset="1" stop-color="#9B3C13" stop-opacity="0.1"/>
</linearGradient>
<linearGradient id="paint7_linear_131_1199" x1="31.8678" y1="209.48" x2="107.665" y2="0.825104" gradientUnits="userSpaceOnUse">
<stop stop-color="#863C13"/>
<stop offset="1" stop-color="#9B5413" stop-opacity="0.1"/>
</linearGradient>
<linearGradient id="paint8_linear_131_1199" x1="106.365" y1="236.543" x2="182.162" y2="27.8878" gradientUnits="userSpaceOnUse">
<stop stop-color="#864A13"/>
<stop offset="1" stop-color="#9B6513" stop-opacity="0.1"/>
</linearGradient>
<linearGradient id="paint9_linear_131_1199" x1="120.939" y1="241.837" x2="196.737" y2="33.1816" gradientUnits="userSpaceOnUse">
<stop stop-color="#863C13"/>
<stop offset="1" stop-color="#9B4413" stop-opacity="0.1"/>
</linearGradient>
<linearGradient id="paint10_linear_131_1199" x1="130.751" y1="199.462" x2="84.3432" y2="30.2143" gradientUnits="userSpaceOnUse">
<stop stop-color="#7F4612"/>
<stop offset="1" stop-color="#D5743D" stop-opacity="0.1"/>
</linearGradient>
<linearGradient id="paint11_linear_131_1199" x1="135.209" y1="213.62" x2="121.037" y2="131.198" gradientUnits="userSpaceOnUse">
<stop stop-color="#6D2812"/>
<stop offset="1" stop-color="#6A3C12" stop-opacity="0"/>
</linearGradient>
<radialGradient id="paint12_radial_131_1199" cx="0" cy="0" r="1" gradientUnits="userSpaceOnUse" gradientTransform="translate(120.663 165.794) scale(72.1281 72.1886)">
<stop stop-color="#EFA68F"/>
<stop offset="1" stop-color="#C96924"/>
</radialGradient>
<linearGradient id="paint13_linear_131_1199" x1="198.697" y1="-12.5437" x2="110.54" y2="128.081" gradientUnits="userSpaceOnUse">
<stop stop-color="#FFDFAE"/>
<stop offset="1" stop-color="#FFD5AE" stop-opacity="0"/>
</linearGradient>
<clipPath id="clip0_131_1199">
<rect width="242" height="242" fill="white"/>
</clipPath>
</defs>
</svg>
