<svg width="1000" height="500" viewBox="0 0 1000 500" fill="none" xmlns="http://www.w3.org/2000/svg">
<rect x="130.75" y="446.234" width="869.249" height="18.0231" rx="9.01156" fill="url(#paint0_linear_8_110)"/>
<path d="M367.54 425.053C360.582 425.053 354.373 423.276 348.912 419.723C343.488 416.132 339.224 411.026 336.119 404.406C333.052 397.747 331.518 389.761 331.518 380.447C331.518 371.133 333.071 363.166 336.175 356.545C339.317 349.925 343.619 344.856 349.08 341.34C354.541 337.824 360.732 336.066 367.652 336.066C373.001 336.066 377.303 336.964 380.557 338.759C383.848 340.517 386.392 342.575 388.188 344.931C390.02 347.288 391.442 349.364 392.452 351.159H393.462V308.461H410.238V423.37H393.854V409.96H392.452C391.442 411.793 389.983 413.888 388.075 416.244C386.205 418.601 383.624 420.658 380.332 422.416C377.041 424.174 372.777 425.053 367.54 425.053ZM371.243 410.746C376.068 410.746 380.145 409.474 383.474 406.93C386.841 404.349 389.384 400.777 391.105 396.214C392.863 391.65 393.742 386.339 393.742 380.279C393.742 374.294 392.882 369.057 391.161 364.569C389.441 360.08 386.916 356.583 383.587 354.077C380.258 351.571 376.143 350.317 371.243 350.317C366.193 350.317 361.985 351.627 358.619 354.245C355.252 356.863 352.709 360.436 350.988 364.962C349.305 369.488 348.463 374.593 348.463 380.279C348.463 386.04 349.323 391.22 351.044 395.821C352.765 400.422 355.308 404.069 358.675 406.762C362.079 409.418 366.268 410.746 371.243 410.746ZM507.908 337.188L476.656 423.37H458.701L427.393 337.188H445.404L467.23 403.508H468.127L489.897 337.188H507.908ZM557.886 425.109C549.395 425.109 542.082 423.295 535.948 419.667C529.851 416.001 525.138 410.858 521.809 404.237C518.517 397.579 516.871 389.78 516.871 380.84C516.871 372.013 518.517 364.232 521.809 357.499C525.138 350.766 529.776 345.511 535.723 341.733C541.708 337.955 548.703 336.066 556.708 336.066C561.57 336.066 566.284 336.87 570.847 338.479C575.41 340.087 579.506 342.612 583.135 346.053C586.763 349.495 589.624 353.964 591.719 359.463C593.814 364.924 594.861 371.564 594.861 379.381V385.329H526.353V372.761H578.422C578.422 368.347 577.524 364.438 575.728 361.034C573.933 357.593 571.408 354.881 568.154 352.898C564.937 350.916 561.159 349.925 556.82 349.925C552.107 349.925 547.992 351.084 544.476 353.403C540.998 355.685 538.304 358.678 536.397 362.381C534.526 366.046 533.591 370.03 533.591 374.332V384.151C533.591 389.911 534.601 394.811 536.621 398.851C538.678 402.891 541.54 405.977 545.206 408.109C548.871 410.203 553.154 411.251 558.054 411.251C561.234 411.251 564.133 410.802 566.751 409.904C569.369 408.969 571.632 407.585 573.54 405.752C575.448 403.919 576.907 401.656 577.917 398.963L593.795 401.825C592.523 406.5 590.242 410.596 586.95 414.112C583.696 417.591 579.6 420.303 574.662 422.248C569.762 424.156 564.17 425.109 557.886 425.109ZM630.251 372.2V423.37H613.475V337.188H629.578V351.215H630.644C632.626 346.652 635.731 342.986 639.958 340.218C644.222 337.45 649.59 336.066 656.061 336.066C661.934 336.066 667.077 337.3 671.491 339.769C675.904 342.2 679.327 345.829 681.758 350.654C684.19 355.479 685.405 361.446 685.405 368.553V423.37H668.629V370.572C668.629 364.326 667.002 359.444 663.748 355.928C660.493 352.375 656.023 350.598 650.338 350.598C646.448 350.598 642.988 351.44 639.958 353.123C636.965 354.806 634.59 357.275 632.832 360.529C631.112 363.746 630.251 367.636 630.251 372.2ZM748.134 337.188V350.654H701.059V337.188H748.134ZM713.684 316.54H730.46V398.065C730.46 401.32 730.946 403.77 731.919 405.415C732.891 407.024 734.144 408.127 735.678 408.726C737.249 409.287 738.951 409.567 740.784 409.567C742.131 409.567 743.309 409.474 744.319 409.287C745.329 409.1 746.114 408.95 746.675 408.838L749.705 422.697C748.733 423.071 747.349 423.445 745.553 423.819C743.758 424.23 741.513 424.455 738.82 424.492C734.406 424.567 730.292 423.781 726.476 422.136C722.661 420.49 719.575 417.946 717.219 414.505C714.862 411.064 713.684 406.743 713.684 401.544V316.54ZM821.285 387.629V337.188H838.117V423.37H821.621V408.445H820.724C818.741 413.046 815.562 416.88 811.185 419.947C806.846 422.977 801.441 424.492 794.97 424.492C789.434 424.492 784.534 423.276 780.27 420.845C776.043 418.376 772.714 414.729 770.283 409.904C767.889 405.079 766.692 399.113 766.692 392.006V337.188H783.468V389.986C783.468 395.858 785.095 400.534 788.349 404.013C791.604 407.491 795.83 409.231 801.03 409.231C804.172 409.231 807.295 408.445 810.4 406.874C813.542 405.303 816.142 402.928 818.199 399.749C820.294 396.569 821.322 392.529 821.285 387.629ZM860.659 423.37V337.188H876.874V350.879H877.771C879.343 346.24 882.111 342.593 886.075 339.937C890.078 337.244 894.604 335.898 899.654 335.898C900.701 335.898 901.935 335.935 903.357 336.01C904.816 336.085 905.956 336.178 906.779 336.29V352.337C906.106 352.15 904.909 351.945 903.188 351.72C901.468 351.458 899.747 351.327 898.026 351.327C894.061 351.327 890.527 352.169 887.422 353.852C884.355 355.498 881.923 357.798 880.128 360.754C878.333 363.671 877.435 367 877.435 370.741V423.37H860.659ZM955.355 425.109C946.864 425.109 939.551 423.295 933.417 419.667C927.319 416.001 922.606 410.858 919.277 404.237C915.986 397.579 914.34 389.78 914.34 380.84C914.34 372.013 915.986 364.232 919.277 357.499C922.606 350.766 927.245 345.511 933.192 341.733C939.177 337.955 946.172 336.066 954.176 336.066C959.039 336.066 963.752 336.87 968.316 338.479C972.879 340.087 976.975 342.612 980.603 346.053C984.232 349.495 987.093 353.964 989.188 359.463C991.283 364.924 992.33 371.564 992.33 379.381V385.329H923.822V372.761H975.89C975.89 368.347 974.993 364.438 973.197 361.034C971.402 357.593 968.877 354.881 965.623 352.898C962.406 350.916 958.628 349.925 954.289 349.925C949.576 349.925 945.461 351.084 941.945 353.403C938.466 355.685 935.773 358.678 933.865 362.381C931.995 366.046 931.06 370.03 931.06 374.332V384.151C931.06 389.911 932.07 394.811 934.09 398.851C936.147 402.891 939.009 405.977 942.674 408.109C946.34 410.203 950.623 411.251 955.523 411.251C958.703 411.251 961.601 410.802 964.22 409.904C966.838 408.969 969.101 407.585 971.009 405.752C972.917 403.919 974.375 401.656 975.385 398.963L991.264 401.825C989.992 406.5 987.71 410.596 984.419 414.112C981.164 417.591 977.069 420.303 972.131 422.248C967.231 424.156 961.639 425.109 955.355 425.109Z" fill="url(#paint1_linear_8_110)"/>
<path d="M167.548 421.515H138.926L221.71 196.06H249.892L332.676 421.515H304.054L236.682 231.728H234.92L167.548 421.515ZM178.116 333.446H293.486V357.665H178.116V333.446Z" fill="url(#paint2_linear_8_110)"/>
<path d="M75.2969 195.867C74.6984 190.556 72.2296 186.441 67.8906 183.524C63.5516 180.569 58.0904 179.091 51.5071 179.091C46.794 179.091 42.7169 179.839 39.2756 181.335C35.8343 182.794 33.1598 184.814 31.2521 187.395C29.3819 189.939 28.4467 192.837 28.4467 196.092C28.4467 198.822 29.0826 201.179 30.3544 203.161C31.6636 205.144 33.3655 206.808 35.4602 208.155C37.5923 209.464 39.8741 210.568 42.3054 211.465C44.7367 212.326 47.0746 213.036 49.3189 213.597L60.5405 216.515C64.2062 217.413 67.9654 218.628 71.8182 220.162C75.6709 221.696 79.2431 223.716 82.5348 226.222C85.8265 228.728 88.4822 231.833 90.5021 235.536C92.5594 239.239 93.5881 243.671 93.5881 248.833C93.5881 255.342 91.9048 261.121 88.5384 266.171C85.2093 271.22 80.3653 275.204 74.0064 278.122C67.6849 281.039 60.0355 282.498 51.0582 282.498C42.455 282.498 35.0114 281.133 28.7273 278.402C22.4432 275.672 17.5244 271.8 13.9709 266.788C10.4174 261.738 8.4536 255.753 8.07955 248.833H25.473C25.8097 252.985 27.1563 256.445 29.5128 259.213C31.9067 261.944 34.9553 263.982 38.6584 265.329C42.3989 266.638 46.4948 267.293 50.946 267.293C55.8461 267.293 60.2038 266.526 64.0192 264.992C67.8719 263.421 70.9018 261.252 73.1087 258.484C75.3156 255.678 76.419 252.405 76.419 248.665C76.419 245.261 75.4465 242.474 73.5014 240.305C71.5938 238.135 68.9941 236.34 65.7024 234.918C62.4482 233.497 58.7637 232.244 54.6491 231.159L41.071 227.456C31.8693 224.95 24.5753 221.266 19.1889 216.403C13.84 211.54 11.1655 205.106 11.1655 197.102C11.1655 190.481 12.9609 184.702 16.5518 179.764C20.1428 174.827 25.0054 170.993 31.1399 168.262C37.2744 165.494 44.1944 164.11 51.8999 164.11C59.6802 164.11 66.544 165.476 72.4915 168.206C78.4763 170.937 83.1894 174.696 86.6307 179.484C90.072 184.234 91.8674 189.695 92.017 195.867H75.2969ZM112.959 312.909V194.409H129.343V208.379H130.746C131.718 206.584 133.121 204.508 134.954 202.151C136.787 199.795 139.33 197.738 142.584 195.98C145.839 194.184 150.14 193.286 155.489 193.286C162.447 193.286 168.656 195.044 174.117 198.561C179.578 202.077 183.861 207.145 186.966 213.766C190.108 220.387 191.679 228.354 191.679 237.668C191.679 246.982 190.126 254.968 187.022 261.626C183.917 268.247 179.653 273.352 174.229 276.943C168.805 280.497 162.615 282.274 155.657 282.274C150.421 282.274 146.138 281.395 142.809 279.637C139.517 277.878 136.936 275.821 135.066 273.465C133.196 271.108 131.756 269.013 130.746 267.181H129.736V312.909H112.959ZM129.399 237.499C129.399 243.559 130.278 248.871 132.036 253.434C133.794 257.998 136.338 261.57 139.667 264.151C142.996 266.694 147.073 267.966 151.898 267.966C156.911 267.966 161.1 266.638 164.466 263.982C167.833 261.289 170.376 257.642 172.097 253.041C173.855 248.44 174.734 243.26 174.734 237.499C174.734 231.814 173.874 226.708 172.153 222.182C170.47 217.656 167.926 214.084 164.523 211.465C161.156 208.847 156.948 207.538 151.898 207.538C147.036 207.538 142.921 208.791 139.555 211.297C136.225 213.803 133.701 217.301 131.98 221.789C130.259 226.278 129.399 231.515 129.399 237.499ZM330.406 282.33C322.064 282.33 314.883 280.441 308.86 276.663C302.875 272.847 298.275 267.592 295.058 260.896C291.841 254.201 290.232 246.533 290.232 237.892C290.232 229.139 291.878 221.415 295.17 214.72C298.462 207.987 303.1 202.731 309.085 198.953C315.07 195.175 322.12 193.286 330.237 193.286C336.783 193.286 342.619 194.502 347.743 196.933C352.868 199.327 357.001 202.694 360.143 207.033C363.322 211.372 365.211 216.44 365.81 222.238H349.482C348.585 218.198 346.527 214.72 343.311 211.802C340.131 208.884 335.867 207.426 330.518 207.426C325.842 207.426 321.746 208.66 318.23 211.129C314.752 213.56 312.04 217.039 310.095 221.565C308.15 226.053 307.177 231.365 307.177 237.499C307.177 243.784 308.131 249.207 310.039 253.771C311.946 258.334 314.639 261.869 318.118 264.375C321.634 266.881 325.767 268.134 330.518 268.134C333.697 268.134 336.578 267.555 339.159 266.395C341.777 265.198 343.965 263.496 345.723 261.289C347.519 259.082 348.772 256.427 349.482 253.322H365.81C365.211 258.895 363.397 263.87 360.367 268.247C357.338 272.623 353.279 276.064 348.192 278.57C343.142 281.077 337.213 282.33 330.406 282.33ZM420.894 282.33C412.403 282.33 405.09 280.516 398.956 276.887C392.859 273.221 388.145 268.078 384.816 261.458C381.525 254.799 379.879 247 379.879 238.061C379.879 229.233 381.525 221.453 384.816 214.72C388.145 207.987 392.784 202.731 398.731 198.953C404.716 195.175 411.711 193.286 419.716 193.286C424.578 193.286 429.291 194.091 433.855 195.699C438.418 197.307 442.514 199.832 446.142 203.274C449.771 206.715 452.632 211.185 454.727 216.683C456.822 222.145 457.869 228.784 457.869 236.602V242.549H389.361V229.981H441.429C441.429 225.567 440.532 221.658 438.736 218.254C436.941 214.813 434.416 212.101 431.162 210.119C427.945 208.136 424.167 207.145 419.828 207.145C415.115 207.145 411 208.305 407.484 210.624C404.005 212.905 401.312 215.898 399.404 219.601C397.534 223.267 396.599 227.25 396.599 231.552V241.371C396.599 247.131 397.609 252.031 399.629 256.071C401.686 260.111 404.548 263.197 408.213 265.329C411.879 267.424 416.162 268.471 421.062 268.471C424.242 268.471 427.141 268.022 429.759 267.124C432.377 266.189 434.64 264.805 436.548 262.972C438.456 261.14 439.914 258.877 440.924 256.183L456.803 259.045C455.531 263.721 453.249 267.816 449.958 271.333C446.703 274.811 442.608 277.523 437.67 279.468C432.77 281.376 427.178 282.33 420.894 282.33Z" fill="url(#paint3_linear_8_110)"/>
<path d="M826.271 330.285C736.077 97.787 423.123 114.008 384.382 114.608" stroke="url(#paint4_linear_8_110)" stroke-width="10" stroke-linecap="round"/>
<path d="M777.845 330.285C672.518 139.98 423.729 114.008 384.988 114.608" stroke="url(#paint5_linear_8_110)" stroke-width="10" stroke-linecap="round"/>
<path d="M344.619 158.011C346.561 156.009 347.696 153.237 347.644 150.487C347.57 146.558 345.523 143.059 341.923 141.161L329.525 134.711C326.724 133.192 325.089 130.471 325.231 127.521L324.918 111.02C324.859 107.877 326.39 105.097 329.131 103.474L341.276 96.5657C344.607 94.7349 346.714 90.9619 346.639 87.0331C346.543 81.9257 342.696 77.4778 337.535 76.7881L311.513 72.3613C304.366 71.3157 297.083 73.6132 292.034 78.8167C291.84 79.0169 291.646 79.217 291.451 79.4171L283.347 90.573C207.791 84.3198 189.012 117.291 188.048 118.684C187.092 120.471 187.137 122.828 188.16 124.578C188.981 126.134 209.191 158.181 284.456 149.112L292.978 159.957C293.18 160.15 293.381 160.343 293.583 160.536C298.826 165.547 305.996 167.771 313.293 166.259L338.935 161.064C341.101 160.434 343.065 159.612 344.619 158.011ZM313.348 127.349C313.288 134.621 317.373 141.226 323.975 144.837L334.178 150.345L311.098 154.903C307.744 155.555 304.361 154.636 302.143 152.515L291.799 139.542C290.582 137.993 288.386 137.051 286.414 137.481C229.731 145.024 207.445 128.737 200.581 121.791C200.775 121.591 200.775 121.591 200.969 121.391C208.155 113.986 230.615 97.6493 285.759 102.908C287.94 103.064 289.904 102.241 291.062 100.647L300.907 87.2975C303.237 84.8959 306.583 83.8508 309.765 84.5775L333.001 88.2703L323.015 94.1555C316.748 97.8097 312.916 104.563 313.057 112.027L313.348 127.349ZM231.525 124.751C233.864 126.986 237.585 126.917 239.838 124.595C242.091 122.274 242.021 118.581 239.681 116.345C237.342 114.109 233.621 114.178 231.368 116.5C229.116 118.822 229.186 122.515 231.525 124.751Z" fill="url(#paint6_linear_8_110)"/>
<defs>
<linearGradient id="paint0_linear_8_110" x1="565.375" y1="446.234" x2="565.375" y2="464.257" gradientUnits="userSpaceOnUse">
<stop stop-color="#5574A7"/>
<stop offset="1" stop-color="#81A9E3"/>
</linearGradient>
<linearGradient id="paint1_linear_8_110" x1="662" y1="270.37" x2="662" y2="463.781" gradientUnits="userSpaceOnUse">
<stop stop-color="#06153D"/>
<stop offset="1" stop-color="#81A9E3"/>
</linearGradient>
<linearGradient id="paint2_linear_8_110" x1="237.538" y1="121.515" x2="237.538" y2="500" gradientUnits="userSpaceOnUse">
<stop stop-color="#06153D"/>
<stop offset="1" stop-color="#81A9E3"/>
</linearGradient>
<linearGradient id="paint3_linear_8_110" x1="233" y1="127.59" x2="233" y2="321.001" gradientUnits="userSpaceOnUse">
<stop stop-color="#06153D"/>
<stop offset="1" stop-color="#81A9E3"/>
</linearGradient>
<linearGradient id="paint4_linear_8_110" x1="830" y1="325.5" x2="388.965" y2="117.758" gradientUnits="userSpaceOnUse">
<stop offset="0.251885" stop-color="#334B79" stop-opacity="0"/>
<stop offset="0.524305" stop-color="#06153D"/>
<stop offset="0.77431" stop-color="#81A9E3"/>
</linearGradient>
<linearGradient id="paint5_linear_8_110" x1="779.526" y1="328.032" x2="369.15" y2="169.275" gradientUnits="userSpaceOnUse">
<stop offset="0.251885" stop-color="#334B79" stop-opacity="0"/>
<stop offset="0.519097" stop-color="#06153D"/>
<stop offset="0.77431" stop-color="#81A9E3"/>
</linearGradient>
<linearGradient id="paint6_linear_8_110" x1="232.976" y1="71.3392" x2="333.792" y2="169.168" gradientUnits="userSpaceOnUse">
<stop stop-color="#06153D"/>
<stop offset="1" stop-color="#81A9E3"/>
</linearGradient>
</defs>
</svg>
