<svg width="241" height="241" viewBox="0 0 241 241" fill="none" xmlns="http://www.w3.org/2000/svg">
<g clip-path="url(#clip0_131_1115)">
<path d="M109.022 0.596854C15.6627 9.45686 -34.5746 120.667 27.2559 196.622C55.8197 231.857 103.542 249.291 150.59 237.157C175.8 230.65 197.576 216.245 213.095 197.481C280.875 115.941 217.041 -9.71595 109.022 0.596854Z" fill="url(#paint0_radial_131_1115)"/>
<path d="M213.586 120.279C213.586 125.721 213.116 131.062 212.216 136.239C211.725 139.022 211.132 141.764 210.417 144.464C206.45 159.279 198.926 172.62 188.825 183.547C185.165 187.516 181.158 191.159 176.844 194.432C172.877 197.461 168.644 200.182 164.208 202.556C158.196 205.768 151.797 208.326 145.09 210.168C137.259 212.316 129.019 213.442 120.513 213.442C116.608 213.442 112.764 213.196 109.002 212.725C77.4732 208.838 50.8108 189.153 37.1934 161.837C31.8773 151.196 28.5445 139.41 27.6653 126.949C27.5017 124.739 27.4199 122.509 27.4199 120.279C27.4199 106.221 30.5278 92.9005 36.0893 80.9507C41.0578 70.2696 48.0096 60.6935 56.4336 52.6929C64.2238 45.2856 73.3021 39.2085 83.3004 34.8501C94.6892 29.8778 107.284 27.1155 120.493 27.1155C160.629 27.1155 194.837 52.5292 207.902 88.1738C211.153 97.0543 213.095 106.549 213.504 116.473C213.566 117.721 213.586 118.989 213.586 120.279Z" fill="url(#paint1_radial_131_1115)"/>
<path d="M37.1726 161.837C36.5388 160.568 35.9254 159.258 35.3529 157.949C31.1205 148.393 28.4624 138.019 27.665 127.113C27.665 127.051 27.665 127.01 27.6445 126.949C29.5256 126.704 32.1019 127.563 33.983 132.863C36.4161 139.758 47.7435 156.557 37.1726 161.837Z" fill="#F79C41"/>
<path d="M110.29 145.999C110.167 146.756 109.901 147.472 109.513 148.127C106.548 153.447 96.2223 156.066 84.7109 154.082C74.6921 152.342 66.6975 147.595 64.1212 142.439C63.3647 140.925 63.0784 139.39 63.3442 137.855C64.5097 131.144 75.7758 129.527 88.7389 131.799C101.702 134.029 111.455 139.288 110.29 145.999Z" fill="#F79C41"/>
<path d="M82.7069 101.638L82.6864 101.658C80.1101 105.546 72.0746 101.986 62.7305 95.8674C55.104 90.8747 49.6652 85.9025 49.2971 82.117C49.2153 81.2576 49.3994 80.4391 49.8697 79.7025C52.4459 75.7738 62.6692 75.5078 72.0337 81.6464C81.3983 87.785 85.2831 97.709 82.7069 101.638Z" fill="#F79C41"/>
<path d="M185.84 159.013C178.295 165.315 169.258 166.932 165.68 162.614C165.496 162.389 165.332 162.164 165.189 161.919C162.449 157.437 165.721 149.396 172.877 143.441C180.156 137.364 188.805 135.645 192.628 139.39C192.771 139.533 192.915 139.676 193.037 139.82C196.615 144.137 193.405 152.731 185.84 159.013Z" fill="#F79C41"/>
<path d="M131.411 107.347C123.784 113.383 116.035 116.718 111.598 111.112C111.169 110.58 110.821 110.007 110.514 109.393C107.693 103.705 110.474 95.4584 117.384 89.995C125.011 83.9588 135.418 81.1146 142.513 90.0974C142.554 90.1587 142.616 90.2201 142.636 90.2815C146.807 95.8267 138.976 101.372 131.411 107.347Z" fill="#F79C41"/>
<path d="M100.946 191.65C99.8415 192.714 97.6537 193.307 94.2186 193.143C81.6235 192.591 67.9448 177.244 71.7683 172.313C71.8296 172.231 71.891 172.17 71.9523 172.108C75.919 167.627 85.856 175.689 90.9267 178.349C99.2894 182.728 103.869 188.846 100.946 191.65Z" fill="#F79C41"/>
<path d="M150.345 180.334C150.365 183.24 146.419 186.309 140.203 186.575C128.835 187.066 122.353 184.877 120.82 180.825C120.656 180.396 120.554 179.945 120.493 179.454C119.941 174.523 130.348 175.362 135.828 175.076C146.112 174.523 150.324 177.347 150.345 180.334Z" fill="#F79C41"/>
<path d="M184.796 114.958C183.549 116.82 181.136 118.089 178.008 118.089C168.153 118.089 155.006 110.968 156.662 104.38C156.846 103.623 157.132 102.968 157.459 102.436C159.995 98.3433 166.394 100.328 172.549 101.638C184.858 104.257 187.495 110.968 184.796 114.958Z" fill="#F79C41"/>
<path d="M152.798 66.566C152.675 66.2796 152.614 65.9522 152.573 65.6043C152.327 62.8011 155.088 58.7087 160.465 57.2354C163.961 56.2737 168.685 56.3965 171.608 58.1971C172.897 58.9951 173.817 60.1001 174.164 61.6143C174.982 65.3793 154.536 70.9244 152.798 66.566Z" fill="#F79C41"/>
<path d="M96.6107 57.8493C95.9155 58.2585 95.0976 58.1357 94.2184 57.2559C88.1867 51.2196 87.6551 41.357 90.9265 39.72C92.2147 39.0652 93.3392 38.8606 94.3002 38.9629C100.843 39.6996 100.127 55.7212 96.6107 57.8493Z" fill="#F79C41"/>
<path d="M199.887 92.3276C199.457 92.5322 198.946 92.5731 198.394 92.4299C196.104 91.8365 193.119 88.3171 192.219 83.0174C191.708 79.9072 193.262 76.9198 195.286 75.9785C197.535 74.9145 200.377 76.3878 201.522 83.0174C202.197 86.7824 202.095 91.2227 199.887 92.3276Z" fill="#F79C41"/>
<path d="M188.825 183.547C181.771 191.179 173.45 197.624 164.208 202.535C163.165 202.024 162.224 201.267 161.856 200.182C161.529 199.22 161.672 197.993 162.674 196.438C166.498 190.401 170.342 181.091 179.093 180.539C181.649 180.375 183.673 180.682 185.288 181.255C186.842 181.828 187.987 182.646 188.825 183.547Z" fill="#F79C41"/>
<path d="M145.07 210.147C137.239 212.296 128.999 213.421 120.493 213.421C116.588 213.421 112.744 213.176 108.981 212.705C108.981 211.6 109.186 210.413 109.861 209.411C110.515 208.449 111.599 207.671 113.377 207.385C119.941 206.28 123.233 201.901 132.536 202.453C137.361 202.74 140.735 205.093 142.841 207.283C143.884 208.387 144.599 209.411 145.07 210.147Z" fill="#F79C41"/>
<path d="M133.169 40.3953C132.699 42.7279 128.753 43.5669 126.851 42.687C126.442 42.5028 126.136 42.2368 125.972 41.9094C124.868 39.72 132.085 35.6276 133.087 39.1675C133.21 39.6177 133.23 40.0269 133.169 40.3953Z" fill="#F79C41"/>
<path d="M104.626 163.555C102.172 162.328 100.25 161.366 100.802 166.297C101.354 171.229 105.178 172.334 108.47 172.334C111.741 172.334 106.814 164.66 104.626 163.555Z" fill="#EF903A"/>
<path d="M59.1737 160.282C56.9859 159.729 56.986 163.576 55.3502 167.402C53.7145 171.229 55.9023 173.971 59.1737 173.971C62.4656 173.971 63.5493 161.366 59.1737 160.282Z" fill="#EF903A"/>
<path d="M49.318 110.948C47.212 109.986 44.9425 108.759 44.3904 110.948C43.8383 113.137 48.766 119.174 51.5058 119.174C54.2457 119.174 55.3293 113.69 49.318 110.948Z" fill="#EF903A"/>
<path d="M213.586 120.278C213.586 125.721 213.116 131.062 212.216 136.239C211.419 135.932 210.601 135.379 209.742 134.52C204.262 129.036 208.413 121.261 209.742 118.621C211.214 115.675 212.686 115.941 213.504 116.452C213.565 117.721 213.586 118.989 213.586 120.278Z" fill="#EF903A"/>
<path d="M157.194 126.294C154.025 125.906 152.267 128.484 157.194 130.673C162.122 132.883 161.57 126.847 157.194 126.294Z" fill="#EF903A"/>
<path d="M39.4631 101.638C37.991 102.375 37.8274 105.464 41.6509 104.932C45.4744 104.38 42.7346 100.001 39.4631 101.638Z" fill="#EF903A"/>
<path d="M117.221 63.2921C115.586 63.8446 113.398 65.4816 117.221 66.034C121.045 66.566 118.857 62.7397 117.221 63.2921Z" fill="#EF903A"/>
<path d="M126.525 63.2922C124.521 62.1258 124.337 67.671 125.973 69.8604C127.609 72.0499 133.088 67.1186 126.525 63.2922Z" fill="#EF903A"/>
<path d="M144.047 193.164C142.861 193.43 142.412 195.353 145.683 196.458C148.975 197.543 148.975 192.059 144.047 193.164Z" fill="#EF903A"/>
<path d="M96.4072 202.474C94.7715 203.026 93.1153 204.111 96.4072 205.216C99.6991 206.3 98.0429 201.921 96.4072 202.474Z" fill="#EF903A"/>
<path d="M99.1464 121.916C96.3656 122.059 102.438 125.742 104.074 126.294C105.71 126.847 110.637 121.363 99.1464 121.916Z" fill="#EF903A"/>
<path d="M188.948 107.674C187.578 108.738 190.053 114.795 192.24 114.242C194.428 113.69 193.876 103.827 188.948 107.674Z" fill="#EF903A"/>
<path d="M144.905 146.081C144.66 147.022 144.353 147.943 144.047 148.761C142.452 153.038 133.026 154.716 130.532 152.752C130.47 152.711 130.409 152.649 130.348 152.588C128.16 150.398 130.286 144.894 131.452 142.173C133.087 138.346 141.307 135.604 144.047 136.689C146.255 137.61 145.969 142.091 144.905 146.081Z" fill="#F79C41"/>
<path d="M49.2971 82.1375C49.2153 81.2781 49.3994 80.4596 49.8697 79.723C52.4459 75.7943 62.6692 75.5283 72.0337 81.6669C81.3983 87.8055 85.2831 97.7295 82.7069 101.658L82.6864 101.679C82.8295 99.2846 81.8277 95.9288 78.3313 91.2431C69.2121 79.0682 52.589 74.8735 49.2971 82.1375Z" fill="#E27C37"/>
<path d="M110.29 145.999C110.167 146.756 109.901 147.472 109.513 148.127C109.288 147.186 107.263 139.799 98.0421 136.709C88.4731 133.517 75.5917 130.673 67.9242 136.709C65.4707 138.633 64.4279 140.618 64.1212 142.418C63.3647 140.904 63.0784 139.369 63.3442 137.835C64.5097 131.123 75.7758 129.507 88.7389 131.778C101.702 134.029 111.455 139.288 110.29 145.999Z" fill="#E27C37"/>
<path d="M125.42 88.4809C115.238 92.0003 110.944 101.986 110.514 109.393C107.693 103.705 110.474 95.4584 117.384 89.995C125.011 83.9588 135.418 81.1146 142.513 90.0974C142.554 90.1587 142.616 90.2201 142.636 90.2815C139.569 87.9079 133.987 85.5344 125.42 88.4809Z" fill="#E27C37"/>
<path d="M144.906 146.081C144.803 142.111 143.822 137.63 139.671 138.899C135.418 140.208 130.593 147.923 130.552 152.752C130.491 152.711 130.429 152.649 130.368 152.588C128.18 150.398 130.307 144.894 131.472 142.173C133.108 138.346 141.327 135.604 144.067 136.689C146.255 137.61 145.969 142.091 144.906 146.081Z" fill="#E27C37"/>
<path d="M184.797 114.958C186.044 107.735 174.471 105.403 168.685 103.295C162.96 101.208 159.034 101.945 157.439 102.436C159.975 98.3433 166.375 100.328 172.529 101.638C184.858 104.257 187.496 110.968 184.797 114.958Z" fill="#E27C37"/>
<path d="M152.798 66.566C152.676 66.2795 152.614 65.9521 152.573 65.6043C156.029 67.896 164.882 66.034 169.769 63.8241C173.265 62.2281 172.693 59.8954 171.609 58.2175C172.897 59.0155 173.817 60.1205 174.165 61.6347C174.983 65.3792 154.536 70.9244 152.798 66.566Z" fill="#E27C37"/>
<path d="M96.6107 57.8493C95.9155 58.2585 95.0976 58.1357 94.2184 57.2559C88.1867 51.2196 87.6551 41.357 90.9265 39.72C92.2147 39.0652 93.3392 38.8606 94.3002 38.9629C92.9712 39.2085 90.9265 40.3748 90.9265 45.2038C90.9265 50.7695 93.605 55.3325 96.6107 57.8493Z" fill="#E27C37"/>
<path d="M133.169 40.3953C132.985 39.454 132.249 38.5537 129.816 39.1675C127.833 39.6586 127.076 41.1728 126.851 42.687C126.442 42.5028 126.136 42.2368 125.972 41.9094C124.868 39.72 132.085 35.6276 133.087 39.1675C133.21 39.6177 133.23 40.0269 133.169 40.3953Z" fill="#E27C37"/>
<path d="M100.945 191.65C100.475 188.703 97.7762 185.838 93.1144 183.281C87.0826 179.986 82.7071 176.712 78.8835 173.97C76.8798 172.538 74.1195 172.149 71.9521 172.108C75.9188 167.627 85.8558 175.689 90.9266 178.349C99.2892 182.728 103.869 188.846 100.945 191.65Z" fill="#E27C37"/>
<path d="M150.345 180.334C149.466 178.145 146.808 177.244 142.391 177.244H127.056C121.188 177.244 120.82 180.641 120.82 180.805C120.656 180.375 120.554 179.925 120.493 179.434C119.941 174.502 130.348 175.341 135.828 175.055C146.112 174.523 150.324 177.347 150.345 180.334Z" fill="#E27C37"/>
<path d="M142.841 207.303C143.884 208.367 144.599 209.411 145.07 210.147C137.239 212.296 128.999 213.421 120.493 213.421C116.588 213.421 112.744 213.176 108.981 212.705C108.981 211.6 109.186 210.413 109.861 209.411C128.058 213.708 138.547 209.717 142.841 207.303Z" fill="#E27C37"/>
<path d="M188.825 183.547C181.77 191.179 173.449 197.624 164.207 202.535C163.164 202.024 162.224 201.267 161.855 200.182C177.129 194.453 183.733 184.079 185.287 181.275C186.841 181.828 187.986 182.646 188.825 183.547Z" fill="#E27C37"/>
<path d="M192.628 139.39C191.402 138.96 182.671 136.525 172.509 148.209C167.377 154.122 165.598 158.706 165.189 161.918C162.449 157.437 165.721 149.396 172.877 143.441C180.156 137.385 188.805 135.645 192.628 139.39Z" fill="#E27C37"/>
<path d="M198.394 92.4094C196.104 91.816 193.119 88.2965 192.219 82.9969C191.708 79.8867 193.262 76.8993 195.286 75.958C194.407 77.1243 193.589 78.9045 193.855 81.36C194.325 85.3296 195.818 89.2992 198.394 92.4094Z" fill="#E27C37"/>
<path d="M37.1726 161.837C36.5388 160.568 35.9254 159.258 35.3529 157.949C37.9701 155.575 40.5463 151.237 37.2749 144.383C33.2265 135.891 31.2636 128.586 27.665 127.113C27.665 127.051 27.665 127.01 27.6445 126.949C29.5256 126.704 32.1019 127.563 33.983 132.863C36.4161 139.758 47.7435 156.557 37.1726 161.837Z" fill="#E27C37"/>
<path opacity="0.35" d="M213.586 120.278C213.586 125.721 213.116 131.062 212.216 136.239C209.088 154.327 200.746 170.635 188.805 183.547C181.751 191.179 173.429 197.624 164.187 202.535C158.176 205.748 151.776 208.306 145.07 210.147C137.238 212.296 128.998 213.421 120.493 213.421C116.587 213.421 112.743 213.175 108.981 212.705C77.4526 208.817 50.7903 189.133 37.1729 161.816C31.8568 151.176 28.524 139.39 27.6448 126.929C27.4812 124.719 27.3994 122.488 27.3994 120.258C27.3994 106.201 30.5073 92.8799 36.0688 80.9302C36.9684 161.611 203.444 181.889 207.902 88.1328C211.153 97.0132 213.095 106.508 213.504 116.432C213.566 117.721 213.586 118.989 213.586 120.278Z" fill="url(#paint2_linear_131_1115)"/>
<path opacity="0.45" d="M176.844 194.432C172.877 197.461 168.644 200.182 164.208 202.556C158.196 205.768 151.797 208.326 145.09 210.168C137.259 212.316 129.019 213.442 120.513 213.442C116.608 213.442 112.764 213.196 109.002 212.725C77.4732 208.838 50.8108 189.153 37.1934 161.837C31.8773 151.196 28.5445 139.41 27.6653 126.949C27.5017 124.739 27.4199 122.509 27.4199 120.279C27.4199 106.221 30.5278 92.9005 36.0893 80.9508C41.0578 70.2697 48.0096 60.6935 56.4336 52.6929C30.4665 176.631 125.972 193.798 176.844 194.432Z" fill="url(#paint3_linear_131_1115)"/>
<path d="M213.586 120.279C213.586 125.721 213.116 131.062 212.217 136.239C211.726 139.022 211.133 141.764 210.417 144.464C207.187 69.533 156.479 26.9313 83.3008 34.8501C94.6895 29.8778 107.285 27.1155 120.493 27.1155C160.63 27.1155 194.837 52.5292 207.902 88.1738C211.153 97.0543 213.096 106.549 213.505 116.473C213.566 117.721 213.586 118.989 213.586 120.279Z" fill="url(#paint4_linear_131_1115)"/>
</g>
<defs>
<radialGradient id="paint0_radial_131_1115" cx="0" cy="0" r="1" gradientUnits="userSpaceOnUse" gradientTransform="translate(120.502 120.493) scale(111.5 111.584)">
<stop stop-color="#FFD86C"/>
<stop offset="1" stop-color="#FFD160" stop-opacity="0"/>
</radialGradient>
<radialGradient id="paint1_radial_131_1115" cx="0" cy="0" r="1" gradientUnits="userSpaceOnUse" gradientTransform="translate(116.392 70.9565) scale(142.146 142.253)">
<stop stop-color="#FFE46A"/>
<stop offset="1" stop-color="#FFA44A"/>
</radialGradient>
<linearGradient id="paint2_linear_131_1115" x1="40.9815" y1="169.518" x2="205.657" y2="92.5322" gradientUnits="userSpaceOnUse">
<stop stop-color="#E27437"/>
<stop offset="1" stop-color="#E27437" stop-opacity="0.2"/>
</linearGradient>
<linearGradient id="paint3_linear_131_1115" x1="102.511" y1="255.021" x2="101.602" y2="24.1452" gradientUnits="userSpaceOnUse">
<stop stop-color="#CC622E"/>
<stop offset="1" stop-color="#CC622E" stop-opacity="0.2"/>
</linearGradient>
<linearGradient id="paint4_linear_131_1115" x1="203.3" y1="27.0744" x2="146.618" y2="89.8295" gradientUnits="userSpaceOnUse">
<stop stop-color="#FFF2B6"/>
<stop offset="1" stop-color="#FFF49A" stop-opacity="0.2"/>
</linearGradient>
<clipPath id="clip0_131_1115">
<rect width="241" height="241" fill="white"/>
</clipPath>
</defs>
</svg>
