<svg width="242" height="242" viewBox="0 0 242 242" fill="none" xmlns="http://www.w3.org/2000/svg">
<g clip-path="url(#clip0_131_1264)">
<path d="M109.474 0.59933C15.7277 9.4961 -34.7181 121.168 27.369 197.438C56.0514 232.819 103.972 250.325 151.214 238.141C176.53 231.607 198.396 217.142 213.979 198.301C282.041 116.422 217.942 -9.75626 109.474 0.59933Z" fill="url(#paint0_radial_131_1264)"/>
<path d="M214.472 120.778C214.472 126.243 214 131.606 213.096 136.804C212.603 139.599 212.008 142.352 211.289 145.064C207.306 159.94 199.751 173.336 189.608 184.308C185.933 188.294 181.909 191.952 177.577 195.239C173.594 198.28 169.344 201.013 164.888 203.396C158.852 206.622 152.426 209.191 145.692 211.04C137.828 213.197 129.554 214.327 121.013 214.327C117.091 214.327 113.231 214.081 109.454 213.608C77.7942 209.704 51.0212 189.938 37.3472 162.508C32.0091 151.824 28.6625 139.989 27.7796 127.476C27.6154 125.257 27.5332 123.017 27.5332 120.778C27.5332 106.662 30.654 93.286 36.2385 81.2867C41.2277 70.5612 48.2084 60.9453 56.6673 52.9115C64.4898 45.4736 73.6057 39.3712 83.6456 34.9947C95.0816 30.0018 107.729 27.228 120.992 27.228C161.295 27.228 195.644 52.7472 208.764 88.5397C212.029 97.457 213.979 106.991 214.39 116.956C214.451 118.209 214.472 119.483 214.472 120.778Z" fill="url(#paint1_radial_131_1264)"/>
<path d="M37.3264 162.508C36.69 161.234 36.074 159.919 35.4991 158.604C31.2491 149.009 28.5801 138.592 27.7793 127.64C27.7793 127.579 27.7793 127.537 27.7588 127.476C29.6477 127.229 32.2347 128.092 34.1235 133.414C36.5668 140.338 47.9412 157.207 37.3264 162.508Z" fill="#BCBCBC"/>
<path d="M110.747 146.605C110.624 147.365 110.357 148.084 109.967 148.742C106.99 154.084 96.6219 156.714 85.0627 154.721C75.0023 152.974 66.9745 148.208 64.3875 143.03C63.6278 141.509 63.3404 139.968 63.6073 138.427C64.7776 131.688 76.0904 130.065 89.1074 132.345C102.124 134.585 111.918 139.866 110.747 146.605Z" fill="#BCBCBC"/>
<path d="M83.0497 102.06L83.0291 102.08C80.4422 105.984 72.3733 102.409 62.9905 96.2653C55.3322 91.2519 49.8709 86.259 49.5013 82.4579C49.4192 81.5949 49.604 80.773 50.0762 80.0333C52.6632 76.0883 62.9289 75.8212 72.3323 81.9853C81.7357 88.1493 85.6366 98.1145 83.0497 102.06Z" fill="#BCBCBC"/>
<path d="M186.61 159.673C179.034 166.001 169.959 167.625 166.366 163.289C166.182 163.063 166.017 162.837 165.874 162.591C163.122 158.091 166.407 150.016 173.593 144.037C180.903 137.934 189.587 136.208 193.427 139.969C193.571 140.112 193.714 140.256 193.837 140.4C197.43 144.735 194.207 153.365 186.61 159.673Z" fill="#BCBCBC"/>
<path d="M131.956 107.792C124.298 113.853 116.517 117.203 112.061 111.573C111.63 111.039 111.281 110.463 110.973 109.847C108.14 104.135 110.932 95.8545 117.872 90.3685C125.53 84.3072 135.98 81.4512 143.105 90.4712C143.146 90.5329 143.207 90.5945 143.228 90.6561C147.416 96.2243 139.553 101.793 131.956 107.792Z" fill="#BCBCBC"/>
<path d="M101.363 192.445C100.255 193.513 98.0577 194.109 94.6085 193.945C81.9611 193.39 68.2256 177.98 72.065 173.028C72.1266 172.946 72.1881 172.884 72.2497 172.823C76.2328 168.323 86.2111 176.418 91.3029 179.089C99.7002 183.486 104.299 189.63 101.363 192.445Z" fill="#BCBCBC"/>
<path d="M150.968 181.082C150.988 184 147.026 187.082 140.784 187.349C129.369 187.842 122.86 185.644 121.32 181.576C121.156 181.144 121.054 180.692 120.992 180.199C120.438 175.247 130.888 176.09 136.39 175.802C146.718 175.247 150.947 178.083 150.968 181.082Z" fill="#BCBCBC"/>
<path d="M185.563 115.436C184.311 117.305 181.888 118.579 178.747 118.579C168.851 118.579 155.649 111.429 157.312 104.813C157.497 104.053 157.784 103.395 158.113 102.861C160.658 98.7515 167.085 100.745 173.265 102.06C185.625 104.69 188.273 111.429 185.563 115.436Z" fill="#BCBCBC"/>
<path d="M153.431 66.8423C153.308 66.5547 153.247 66.2259 153.206 65.8766C152.959 63.0617 155.731 58.9524 161.131 57.473C164.642 56.5073 169.384 56.6306 172.32 58.4387C173.614 59.24 174.538 60.3495 174.887 61.87C175.708 65.6506 155.177 71.2188 153.431 66.8423Z" fill="#BCBCBC"/>
<path d="M97.0117 58.0895C96.3136 58.5004 95.4924 58.3771 94.6095 57.4936C88.5527 51.4323 88.0189 41.5288 91.3039 39.885C92.5974 39.2275 93.7267 39.0221 94.6916 39.1248C101.262 39.8645 100.543 55.9526 97.0117 58.0895Z" fill="#BCBCBC"/>
<path d="M200.715 92.7107C200.284 92.9162 199.77 92.9573 199.216 92.8134C196.917 92.2176 193.919 88.6835 193.016 83.3619C192.502 80.2388 194.063 77.239 196.095 76.2938C198.354 75.2254 201.208 76.7047 202.357 83.3619C203.035 87.1425 202.932 91.6012 200.715 92.7107Z" fill="#BCBCBC"/>
<path d="M189.608 184.308C182.525 191.972 174.168 198.445 164.888 203.376C163.841 202.862 162.896 202.102 162.527 201.013C162.198 200.047 162.342 198.814 163.348 197.253C167.188 191.191 171.047 181.843 179.835 181.288C182.401 181.124 184.434 181.432 186.056 182.007C187.616 182.582 188.766 183.404 189.608 184.308Z" fill="#BCBCBC"/>
<path d="M145.671 211.019C137.807 213.177 129.533 214.307 120.992 214.307C117.07 214.307 113.21 214.06 109.433 213.588C109.433 212.478 109.638 211.286 110.315 210.28C110.972 209.314 112.061 208.533 113.847 208.246C120.437 207.136 123.743 202.739 133.085 203.294C137.93 203.581 141.318 205.944 143.433 208.143C144.48 209.252 145.198 210.28 145.671 211.019Z" fill="#BCBCBC"/>
<path d="M133.721 40.563C133.249 42.9053 129.286 43.7477 127.377 42.8642C126.966 42.6793 126.658 42.4122 126.494 42.0834C125.385 39.8849 132.633 35.7756 133.639 39.3302C133.762 39.7822 133.783 40.1931 133.721 40.563Z" fill="#BCBCBC"/>
<path d="M105.06 164.234C102.596 163.001 100.666 162.036 101.221 166.987C101.775 171.939 105.614 173.049 108.92 173.049C112.205 173.049 107.257 165.344 105.06 164.234Z" fill="#9B9B9B"/>
<path d="M59.4185 160.947C57.2216 160.392 57.2216 164.255 55.5791 168.097C53.9366 171.939 56.1334 174.693 59.4185 174.693C62.724 174.693 63.8122 162.036 59.4185 160.947Z" fill="#9B9B9B"/>
<path d="M49.5223 111.408C47.4075 110.443 45.1285 109.21 44.5742 111.408C44.0198 113.607 48.9679 119.668 51.7191 119.668C54.4703 119.668 55.5585 114.162 49.5223 111.408Z" fill="#9B9B9B"/>
<path d="M214.472 120.778C214.472 126.243 213.999 131.606 213.096 136.804C212.295 136.496 211.474 135.941 210.612 135.078C205.109 129.572 209.277 121.764 210.612 119.113C212.09 116.155 213.568 116.422 214.39 116.935C214.451 118.209 214.472 119.483 214.472 120.778Z" fill="#9B9B9B"/>
<path d="M157.846 126.818C154.663 126.428 152.898 129.017 157.846 131.215C162.794 133.434 162.24 127.373 157.846 126.818Z" fill="#9B9B9B"/>
<path d="M39.6263 102.06C38.1481 102.799 37.9838 105.902 41.8232 105.368C45.6626 104.813 42.9114 100.416 39.6263 102.06Z" fill="#9B9B9B"/>
<path d="M117.708 63.5548C116.065 64.1096 113.868 65.7533 117.708 66.3081C121.547 66.8423 119.35 63.0001 117.708 63.5548Z" fill="#9B9B9B"/>
<path d="M127.049 63.5548C125.037 62.3836 124.853 67.9518 126.495 70.1503C128.138 72.3488 133.64 67.3971 127.049 63.5548Z" fill="#9B9B9B"/>
<path d="M144.645 193.965C143.454 194.233 143.002 196.164 146.287 197.273C149.593 198.362 149.593 192.856 144.645 193.965Z" fill="#9B9B9B"/>
<path d="M96.8067 203.314C95.1641 203.869 93.5011 204.958 96.8067 206.068C100.112 207.157 98.4492 202.759 96.8067 203.314Z" fill="#9B9B9B"/>
<path d="M99.5575 122.421C96.7653 122.565 102.863 126.264 104.506 126.818C106.148 127.373 111.096 121.867 99.5575 122.421Z" fill="#9B9B9B"/>
<path d="M189.731 108.121C188.356 109.189 190.84 115.271 193.037 114.716C195.234 114.162 194.679 104.258 189.731 108.121Z" fill="#9B9B9B"/>
<path d="M145.507 146.687C145.261 147.632 144.953 148.557 144.645 149.379C143.043 153.673 133.578 155.358 131.073 153.386C131.012 153.344 130.95 153.283 130.889 153.221C128.692 151.023 130.827 145.496 131.997 142.763C133.64 138.921 141.893 136.167 144.645 137.256C146.862 138.181 146.575 142.681 145.507 146.687Z" fill="#BCBCBC"/>
<path d="M49.5013 82.4784C49.4192 81.6154 49.604 80.7935 50.0762 80.0538C52.6632 76.1089 62.9289 75.8417 72.3323 82.0058C81.7357 88.1698 85.6366 98.135 83.0497 102.08L83.0291 102.101C83.1728 99.6966 82.1668 96.3269 78.656 91.6217C69.4989 79.3963 52.8069 75.1842 49.5013 82.4784Z" fill="#9B9B9B"/>
<path d="M110.747 146.605C110.624 147.365 110.357 148.084 109.967 148.742C109.741 147.797 107.709 140.379 98.4492 137.277C88.8405 134.071 75.9056 131.215 68.2063 137.277C65.7426 139.208 64.6955 141.201 64.3875 143.009C63.6278 141.489 63.3404 139.948 63.6073 138.407C64.7776 131.667 76.0904 130.044 89.1074 132.325C102.124 134.585 111.918 139.866 110.747 146.605Z" fill="#9B9B9B"/>
<path d="M125.94 88.848C115.716 92.3821 111.404 102.409 110.973 109.847C108.14 104.135 110.932 95.8545 117.872 90.3685C125.53 84.3072 135.98 81.4512 143.105 90.4712C143.146 90.5329 143.207 90.5945 143.228 90.6561C140.148 88.2727 134.543 85.8893 125.94 88.848Z" fill="#9B9B9B"/>
<path d="M145.507 146.687C145.404 142.701 144.419 138.201 140.251 139.475C135.98 140.79 131.135 148.537 131.094 153.386C131.032 153.344 130.971 153.283 130.909 153.221C128.712 151.023 130.847 145.496 132.018 142.763C133.66 138.921 141.914 136.167 144.665 137.256C146.862 138.181 146.575 142.681 145.507 146.687Z" fill="#9B9B9B"/>
<path d="M185.563 115.436C186.815 108.183 175.194 105.84 169.384 103.724C163.635 101.628 159.693 102.368 158.092 102.861C160.638 98.7515 167.064 100.745 173.244 102.06C185.624 104.69 188.273 111.429 185.563 115.436Z" fill="#9B9B9B"/>
<path d="M153.432 66.8423C153.309 66.5547 153.247 66.2259 153.206 65.8766C156.676 68.1779 165.566 66.3081 170.473 64.089C173.984 62.4864 173.409 60.1441 172.321 58.4592C173.614 59.2606 174.538 60.3701 174.887 61.8905C175.708 65.6506 155.177 71.2188 153.432 66.8423Z" fill="#9B9B9B"/>
<path d="M97.0117 58.0895C96.3136 58.5004 95.4924 58.3771 94.6095 57.4936C88.5527 51.4323 88.0189 41.5288 91.3039 39.885C92.5974 39.2275 93.7267 39.0221 94.6916 39.1248C93.3571 39.3713 91.3039 40.5425 91.3039 45.3916C91.3039 50.9803 93.9936 55.5622 97.0117 58.0895Z" fill="#9B9B9B"/>
<path d="M133.721 40.563C133.536 39.6178 132.797 38.7138 130.354 39.3302C128.362 39.8233 127.603 41.3437 127.377 42.8642C126.966 42.6793 126.658 42.4122 126.494 42.0834C125.385 39.8849 132.633 35.7756 133.639 39.3302C133.762 39.7822 133.783 40.1931 133.721 40.563Z" fill="#9B9B9B"/>
<path d="M101.364 192.445C100.891 189.486 98.1812 186.61 93.5 184.041C87.4433 180.733 83.0495 177.446 79.2102 174.692C77.1981 173.254 74.4263 172.864 72.25 172.823C76.2331 168.323 86.2114 176.418 91.3032 179.089C99.7005 183.486 104.3 189.63 101.364 192.445Z" fill="#9B9B9B"/>
<path d="M150.968 181.083C150.085 178.884 147.416 177.98 142.981 177.98H127.583C121.69 177.98 121.32 181.391 121.32 181.555C121.156 181.124 121.054 180.672 120.992 180.179C120.438 175.227 130.888 176.069 136.39 175.782C146.718 175.247 150.947 178.083 150.968 181.083Z" fill="#9B9B9B"/>
<path d="M143.433 208.163C144.48 209.232 145.198 210.28 145.671 211.019C137.807 213.177 129.533 214.307 120.992 214.307C117.07 214.307 113.21 214.06 109.433 213.588C109.433 212.478 109.638 211.286 110.315 210.28C128.588 214.594 139.121 210.588 143.433 208.163Z" fill="#9B9B9B"/>
<path d="M189.607 184.309C182.524 191.972 174.168 198.445 164.887 203.376C163.84 202.862 162.896 202.102 162.526 201.013C177.863 195.26 184.495 184.843 186.055 182.028C187.616 182.583 188.766 183.404 189.607 184.309Z" fill="#9B9B9B"/>
<path d="M193.427 139.968C192.195 139.537 183.428 137.092 173.224 148.824C168.07 154.762 166.284 159.365 165.874 162.59C163.122 158.091 166.407 150.016 173.593 144.037C180.903 137.955 189.587 136.208 193.427 139.968Z" fill="#9B9B9B"/>
<path d="M199.216 92.7928C196.917 92.197 193.919 88.6629 193.016 83.3413C192.502 80.2182 194.063 77.2183 196.095 76.2732C195.212 77.4444 194.391 79.2319 194.658 81.6976C195.13 85.6836 196.629 89.6697 199.216 92.7928Z" fill="#9B9B9B"/>
<path d="M37.3264 162.508C36.69 161.234 36.074 159.919 35.4991 158.604C38.1272 156.221 40.7141 151.865 37.4291 144.982C33.3639 136.455 31.3929 129.12 27.7793 127.64C27.7793 127.579 27.7793 127.537 27.7588 127.476C29.6477 127.229 32.2347 128.092 34.1235 133.414C36.5668 140.338 47.9412 157.207 37.3264 162.508Z" fill="#9B9B9B"/>
<path opacity="0.45" d="M177.577 195.239C173.594 198.28 169.344 201.013 164.888 203.396C158.852 206.622 152.426 209.191 145.692 211.04C137.828 213.197 129.554 214.327 121.013 214.327C117.091 214.327 113.231 214.081 109.454 213.608C77.7942 209.704 51.0212 189.938 37.3472 162.508C32.0091 151.824 28.6625 139.989 27.7796 127.476C27.6154 125.257 27.5332 123.017 27.5332 120.778C27.5332 106.662 30.654 93.286 36.2385 81.2866C41.2277 70.5612 48.2084 60.9453 56.6673 52.9115C30.5924 177.364 126.495 194.602 177.577 195.239Z" fill="url(#paint2_linear_131_1264)"/>
<path d="M214.472 120.778C214.472 126.243 214 131.606 213.096 136.804C212.603 139.599 212.008 142.352 211.289 145.064C208.045 69.8216 157.127 27.0431 83.6455 34.9947C95.0815 30.0018 107.729 27.228 120.992 27.228C161.295 27.228 195.644 52.7472 208.764 88.5397C212.028 97.457 213.979 106.991 214.39 116.956C214.451 118.209 214.472 119.483 214.472 120.778Z" fill="url(#paint3_linear_131_1264)"/>
</g>
<defs>
<radialGradient id="paint0_radial_131_1264" cx="0" cy="0" r="1" gradientUnits="userSpaceOnUse" gradientTransform="translate(121.002 120.993) scale(111.963 112.047)">
<stop stop-color="#F8F8F8"/>
<stop offset="1" stop-color="white" stop-opacity="0"/>
</radialGradient>
<radialGradient id="paint1_radial_131_1264" cx="0" cy="0" r="1" gradientUnits="userSpaceOnUse" gradientTransform="translate(116.874 71.251) scale(142.736 142.843)">
<stop stop-color="#E8E8E8"/>
<stop offset="1" stop-color="#DFDFDF"/>
</radialGradient>
<linearGradient id="paint2_linear_131_1264" x1="102.936" y1="256.079" x2="102.023" y2="24.2454" gradientUnits="userSpaceOnUse">
<stop/>
<stop offset="1" stop-opacity="0.2"/>
</linearGradient>
<linearGradient id="paint3_linear_131_1264" x1="204.143" y1="27.1867" x2="147.226" y2="90.2023" gradientUnits="userSpaceOnUse">
<stop stop-color="#B7B7B7"/>
<stop offset="0.557292" stop-color="#AEAEAE" stop-opacity="0.2"/>
</linearGradient>
<clipPath id="clip0_131_1264">
<rect width="242" height="242" fill="white"/>
</clipPath>
</defs>
</svg>
