<svg width="307" height="241" viewBox="0 0 307 241" fill="none" xmlns="http://www.w3.org/2000/svg">
<g clip-path="url(#clip0_131_1334)">
<path d="M276.049 120.168C276.049 116.007 275.832 111.889 275.397 107.815C272.194 75.9144 257.023 49.2438 235.417 30.4184C215.479 12.7344 189.569 1.46515 160.791 0.164849C135.099 -1.17879 108.524 5.64056 84.9477 22.4866C84.8898 22.5155 84.8318 22.5588 84.7883 22.6022C84.7738 22.6166 84.7593 22.6311 84.6724 22.6889C84.6434 22.7033 84.6289 22.7178 84.6289 22.7178C64.6175 37.0933 50.6196 56.0054 42.5919 76.7379C2.78636 77.518 -23.6734 84.8142 -26.2237 98.1205C-28.9479 112.294 -3.93725 130.151 37.2014 146.419C37.2594 146.679 37.3173 146.939 37.3753 147.185C37.3898 147.243 37.4043 147.301 37.4188 147.344C37.6506 148.384 37.9114 149.424 38.1723 150.465C38.2012 150.595 38.2302 150.71 38.2737 150.84C38.5345 151.866 38.8243 152.892 39.1141 153.903C39.1431 153.99 39.1576 154.077 39.1866 154.163C39.8097 156.287 40.4762 158.382 41.2153 160.448C41.2298 160.506 41.2587 160.549 41.2732 160.607C41.592 161.503 41.9108 162.398 42.2586 163.28C49.9965 183.796 63.5162 202.52 82.7162 216.852C83.2088 217.228 83.716 217.603 84.2232 217.965C84.5565 218.21 84.8897 218.441 85.223 218.687C86.1359 219.337 87.0488 219.973 87.9762 220.58C111.494 236.313 137.635 242.439 162.776 240.72C167.442 240.431 172.036 239.882 176.542 239.087C188.236 237.021 199.336 233.265 209.61 228.092C210.682 227.558 211.74 226.994 212.798 226.416C212.972 226.315 213.16 226.229 213.334 226.127C214.377 225.55 215.421 224.972 216.449 224.365C216.536 224.322 216.623 224.264 216.696 224.22C217.71 223.628 218.71 223.007 219.71 222.386C219.797 222.328 219.884 222.284 219.956 222.227C220.985 221.576 222.014 220.897 223.028 220.218C223.072 220.189 223.115 220.161 223.158 220.132C223.245 220.074 223.318 220.016 223.405 219.958C224.057 219.51 224.694 219.077 225.332 218.615C225.491 218.499 225.651 218.398 225.796 218.282C226.433 217.82 227.056 217.358 227.694 216.895C227.824 216.794 227.955 216.693 228.085 216.606C229.578 215.479 231.027 214.338 232.461 213.139C232.679 212.966 232.882 212.778 233.099 212.604C233.577 212.2 234.055 211.795 234.519 211.391C234.794 211.16 235.07 210.914 235.345 210.668C235.751 210.307 236.156 209.946 236.562 209.57C236.838 209.325 237.113 209.065 237.388 208.805C237.417 208.776 237.446 208.747 237.475 208.718C237.62 208.588 237.765 208.443 237.924 208.313C244.155 202.578 249.792 196.163 254.719 189.156C302.378 189.965 334.953 182.596 337.822 167.773C340.474 153.817 316.173 136.263 276.049 120.168ZM39.2156 86.6924H39.2011C39.3315 86.2734 39.4619 85.8544 39.5923 85.4354C39.4619 85.8544 39.346 86.2734 39.2156 86.6924ZM35.7813 102.137C35.7668 102.224 35.7523 102.31 35.7378 102.397C35.5785 103.423 35.4335 104.463 35.3176 105.503C35.3031 105.677 35.2742 105.836 35.2597 106.009C35.1292 107.049 35.0133 108.089 34.9264 109.13C34.9264 109.173 34.9119 109.216 34.9119 109.26C34.8249 110.257 34.738 111.268 34.68 112.265C34.6656 112.453 34.6511 112.64 34.6366 112.843C34.5786 113.854 34.5206 114.851 34.4917 115.862C34.4772 116.065 34.4772 116.281 34.4772 116.484C34.4627 116.931 34.4482 117.379 34.4337 117.827C15.7989 109.895 5.27873 102.397 6.38002 96.6613C7.4668 91.0556 19.5229 87.9927 39.0272 87.4003C37.6361 92.2114 36.5493 97.1236 35.7813 102.137ZM275.556 131.437C296.915 140.048 309.218 148.254 308.03 154.423C306.827 160.694 291.887 163.785 268.181 163.8C272.021 153.744 274.571 142.923 275.556 131.437ZM-11.8926 98.1783C-9.42916 85.4065 17.5667 81.7512 41.0124 81.0144C40.6791 81.9679 40.3748 82.9215 40.0705 83.8895C10.3649 84.9297 -7.47294 90.2754 -9.09588 98.7129C-10.7913 107.526 5.16281 119.72 34.6655 132.203C34.767 132.246 34.8539 132.275 34.9554 132.318C34.9554 132.318 34.9554 132.318 34.9699 132.318C35.0133 132.708 35.0423 133.098 35.0858 133.489C35.1582 134.168 35.2452 134.861 35.3176 135.54C34.7235 135.295 34.1439 135.049 33.5643 134.803C11.4082 125.456 -14.4574 111.499 -11.8926 98.1783ZM329.157 163.468C326.592 176.788 297.379 180.198 273.325 180.704C270.963 180.747 268.528 180.776 266.079 180.776C264.109 180.776 262.109 180.762 260.095 180.733C260.631 179.808 261.167 178.854 261.689 177.915C265.674 177.973 269.543 177.959 273.281 177.872C305.334 177.179 324.679 171.732 326.375 162.933C328.07 154.12 312.116 141.926 282.599 129.443C280.425 128.519 278.179 127.608 275.89 126.698C275.89 126.554 275.904 126.395 275.904 126.25C275.948 125.398 275.977 124.531 276.005 123.679C278.643 124.719 281.208 125.773 283.714 126.828C305.856 136.19 331.722 150.147 329.157 163.468Z" fill="url(#paint0_radial_131_1334)"/>
<path d="M251.617 120.515C251.617 197.911 164.79 242.497 101.727 200.281C46.069 163.049 44.562 81.7369 99.0754 42.5835C99.0754 42.5835 99.0899 42.569 99.1189 42.5546C99.1914 42.5112 99.1914 42.4968 99.2058 42.4824C99.2493 42.439 99.2928 42.4101 99.3363 42.3957C162.051 -2.42122 251.617 41.7311 251.617 120.515Z" fill="url(#paint1_radial_131_1334)"/>
<path d="M114.537 120.515C115.102 126.164 95.2789 120.515 82.8171 120.515C74.4995 120.515 65.6603 122.032 59.0381 119.836C59.096 110.719 60.4437 101.906 62.8781 93.5696C66.2544 93.1361 71.9781 94.1041 80.5565 100.75C95.844 112.597 113.972 114.866 114.537 120.515Z" fill="url(#paint2_linear_131_1334)"/>
<path d="M180.801 132.362C166.644 131.235 150.777 127.276 147.951 130.108C145.126 132.925 170.788 140.135 194.394 144.223C220.448 148.745 236.88 150.436 231.214 143.096C225.548 135.757 216.492 126.713 202.32 131.235C188.177 135.757 188.713 132.997 180.801 132.362Z" fill="url(#paint3_linear_131_1334)"/>
<path d="M179.672 171.905C179.672 178.016 123.593 161.734 104.901 169.088C90.9317 174.578 86.4542 178.479 77.9917 177.756C68.0222 164.378 61.4435 148.326 59.5742 130.874C64.4575 132.723 72.862 136.306 86.2078 143.111C110.581 155.521 179.672 163.424 179.672 171.905Z" fill="url(#paint4_linear_131_1334)"/>
<path d="M223.897 187.899C216.58 195.31 208.045 201.537 198.64 206.262C196.119 204.008 193.641 201.465 189.873 200.136C180.237 196.741 154.763 190.543 159.849 187.147C164.95 183.752 181.368 186.021 200.625 184.894C212.29 184.2 219.796 186.208 223.897 187.899Z" fill="url(#paint5_linear_131_1334)"/>
<path d="M215.927 172.469C209.146 165.288 189.873 166.82 192.699 173.596C194.249 177.28 224.984 182.062 215.927 172.469Z" fill="url(#paint6_linear_131_1334)"/>
<path d="M133.794 182.625C125.375 180.762 119.637 184.316 118.507 187.148C117.377 189.965 141.735 193.924 142.3 191.106C142.865 188.289 138.895 183.752 133.794 182.625Z" fill="url(#paint7_linear_131_1334)"/>
<path d="M130.404 134.066C124.797 132.665 114.552 135.193 114.552 138.589C114.552 141.984 128.144 145.928 133.81 144.238C139.461 142.533 141.722 136.884 130.404 134.066Z" fill="url(#paint8_linear_131_1334)"/>
<path d="M140.026 144.787C138.345 144.512 136.055 146.477 137.2 148.182C138.33 149.872 146.822 145.928 140.026 144.787Z" fill="url(#paint9_linear_131_1334)"/>
<path d="M197.234 160.607C193.597 159.523 191.004 161.17 192.699 164.566C194.409 167.946 208.566 163.988 197.234 160.607Z" fill="url(#paint10_linear_131_1334)"/>
<path d="M223.854 178.118C221.854 176.124 220.449 179.808 221.594 180.935C222.724 182.062 228.39 182.625 223.854 178.118Z" fill="url(#paint11_linear_131_1334)"/>
<path d="M172.296 215.017C166.79 216 161.11 216.505 155.328 216.505C135.491 216.505 117.044 210.524 101.728 200.266C113.074 197.001 131.94 199.674 150.807 208.602C159.588 212.778 166.79 214.468 172.296 215.017Z" fill="url(#paint12_linear_131_1334)"/>
<path d="M176.281 204.658C173.397 204.658 173.455 206.349 173.455 208.053C173.455 209.744 176.281 210.307 177.991 208.053C179.672 205.785 178.541 204.658 176.281 204.658Z" fill="url(#paint13_linear_131_1334)"/>
<path d="M168.92 206.349C167.804 206.161 167.224 209.166 168.92 209.744C170.615 210.307 172.31 206.912 168.92 206.349Z" fill="url(#paint14_linear_131_1334)"/>
<path d="M104.35 175.286C100.423 176.066 94.7138 178.681 99.8145 182.062C104.915 185.457 115.667 173.032 104.35 175.286Z" fill="url(#paint15_linear_131_1334)"/>
<path d="M85.6571 128.418C83.6139 126.38 82.2518 131.813 83.3966 132.376C84.5123 132.94 87.9176 130.671 85.6571 128.418Z" fill="url(#paint16_linear_131_1334)"/>
<path d="M102.075 96.2278C97.0611 93.7284 90.1781 91.7057 89.0478 93.974C87.9176 96.2279 109.436 111.485 114.537 108.089C119.637 104.694 106.61 98.4817 102.075 96.2278Z" fill="url(#paint17_linear_131_1334)"/>
<path d="M185.338 120.515C181.759 118.723 181.932 126.727 187.033 128.981C192.134 131.235 187.613 121.641 185.338 120.515Z" fill="url(#paint18_linear_131_1334)"/>
<path d="M240.851 130.108C234.011 129.79 236.315 140.842 240.851 141.969C245.386 143.096 252.747 130.671 240.851 130.108Z" fill="url(#paint19_linear_131_1334)"/>
<path opacity="0.45" d="M209.435 199.919C205.987 202.26 202.393 204.369 198.64 206.262C190.453 210.379 181.599 213.37 172.282 215.017C166.775 216 161.095 216.505 155.313 216.505C135.476 216.505 117.029 210.524 101.713 200.266C92.5692 194.155 84.5559 186.526 78.0062 177.728C76.5861 175.82 75.224 173.856 73.9488 171.833C66.2544 159.74 61.1972 145.798 59.5887 130.845C59.2265 127.449 59.0381 123.982 59.0381 120.5C59.0381 120.269 59.0381 120.038 59.0381 119.821C59.096 112.308 60.009 104.998 61.7043 97.9905C73.7315 129.66 96.7135 165.953 140.547 185.486C145.996 187.913 151.763 190.08 157.864 191.944C176.136 197.521 193.394 199.862 209.435 199.919Z" fill="url(#paint20_linear_131_1334)"/>
<path opacity="0.55" d="M246.126 152.502C241.373 165.909 233.722 177.959 223.897 187.899C219.492 192.363 214.652 196.394 209.436 199.919C205.987 202.26 202.393 204.369 198.64 206.262C190.453 210.38 181.599 213.37 172.282 215.017C166.776 216 161.095 216.505 155.314 216.505C135.476 216.505 117.03 210.524 101.713 200.266C92.5696 194.155 84.5563 186.526 78.0066 177.728C76.5865 175.821 75.2244 173.856 73.9492 171.833C98.5831 180.429 120.739 184.561 140.548 185.472C188.961 187.697 223.434 170.663 246.126 152.502Z" fill="url(#paint21_linear_131_1334)"/>
<path d="M99.3362 42.3956C99.2637 42.4534 99.2057 42.4823 99.1768 42.5112C99.2057 42.4823 99.2782 42.4245 99.3362 42.3956Z" fill="url(#paint22_linear_131_1334)"/>
<path d="M250.908 132.159C251.343 127.926 254.82 80.3209 196.96 48.507C139.302 16.8087 102.757 40.0696 99.3369 42.3956C115.117 31.1264 134.447 24.4949 155.328 24.4949C213.233 24.5093 257.921 75.1053 250.908 132.159Z" fill="url(#paint23_linear_131_1334)"/>
<path d="M256.834 127.637C255.095 126.9 253.313 126.164 251.487 125.441C251.429 126.713 251.327 127.955 251.226 129.212C268.252 136.075 278.062 142.62 277.121 147.532C276.164 152.545 264.195 155.001 245.212 155.001C222.361 155.001 189.337 151.447 153.067 144.512C114.131 137.057 80.1217 127.363 59.0669 118.376C44.2286 112.048 35.8241 106.081 36.708 101.516C37.563 97.0369 47.1847 94.6097 62.7185 94.1329C62.7765 93.9307 62.82 93.7429 62.8779 93.555C63.0953 92.8038 63.3271 92.0669 63.559 91.3301C39.8959 92.1536 25.6662 96.4301 24.3766 103.148C23.0289 110.17 35.7371 119.893 59.2553 129.833C59.3277 129.862 59.4147 129.891 59.4871 129.934C83.8023 140.178 116.899 149.598 152.719 156.46C184.512 162.543 215.058 165.967 239.996 166.27C243.242 166.314 246.386 166.299 249.415 166.242C274.947 165.693 290.379 161.344 291.727 154.337C293.075 147.301 280.366 137.577 256.834 127.637Z" fill="url(#paint24_linear_131_1334)"/>
<path d="M251.617 120.24V120.515C251.617 121.367 251.603 122.205 251.588 123.057C253.69 123.881 255.747 124.719 257.732 125.571C275.382 133.026 296.002 144.151 293.959 154.756C291.916 165.36 268.629 168.076 249.473 168.495C247.589 168.539 245.662 168.553 243.691 168.553C242.068 168.553 240.416 168.539 238.735 168.51C213.899 168.091 183.686 164.681 152.285 158.671C116.884 151.895 84.1214 142.62 59.7773 132.506C59.2991 132.304 58.8354 132.116 58.3717 131.914C40.7222 124.459 20.1022 113.334 22.1453 102.729C24.1016 92.5437 45.6345 89.6397 64.3273 89.0473C64.7185 87.906 65.1388 86.7646 65.588 85.6377C33.8537 86.2589 12.77 92.0814 10.7268 102.672C8.55321 113.97 28.4922 128.201 61.2698 141.16C84.9618 150.522 115.377 159.22 148.995 165.664C180.382 171.674 209.914 174.809 234.446 175.243C272.513 175.907 298.552 170.041 300.827 158.209C302.957 147.055 283.598 133.055 251.617 120.24Z" fill="url(#paint25_linear_131_1334)"/>
</g>
<defs>
<radialGradient id="paint0_radial_131_1334" cx="0" cy="0" r="1" gradientUnits="userSpaceOnUse" gradientTransform="translate(155.771 120.515) scale(112.271 111.94)">
<stop stop-color="#F9AB63"/>
<stop offset="1" stop-color="#FFCC9C" stop-opacity="0"/>
</radialGradient>
<radialGradient id="paint1_radial_131_1334" cx="0" cy="0" r="1" gradientUnits="userSpaceOnUse" gradientTransform="translate(162.135 78.9937) scale(114.821 114.482)">
<stop stop-color="#FBDFB6"/>
<stop offset="1" stop-color="#ED8D35"/>
</radialGradient>
<linearGradient id="paint2_linear_131_1334" x1="69.2567" y1="239.625" x2="104.733" y2="-9.44155" gradientUnits="userSpaceOnUse">
<stop stop-color="#BD602B"/>
<stop offset="1" stop-color="#E28E2B" stop-opacity="0"/>
</linearGradient>
<linearGradient id="paint3_linear_131_1334" x1="173.37" y1="254.454" x2="208.845" y2="5.38841" gradientUnits="userSpaceOnUse">
<stop stop-color="#BD7A2B"/>
<stop offset="1" stop-color="#E2832B" stop-opacity="0"/>
</linearGradient>
<linearGradient id="paint4_linear_131_1334" x1="106.238" y1="244.892" x2="141.713" y2="-4.17376" gradientUnits="userSpaceOnUse">
<stop stop-color="#BD712B"/>
<stop offset="1" stop-color="#E2992B" stop-opacity="0"/>
</linearGradient>
<linearGradient id="paint5_linear_131_1334" x1="181.846" y1="255.661" x2="217.322" y2="6.59456" gradientUnits="userSpaceOnUse">
<stop stop-color="#BD602B"/>
<stop offset="1" stop-color="#E22B57" stop-opacity="0"/>
</linearGradient>
<linearGradient id="paint6_linear_131_1334" x1="193.058" y1="257.259" x2="228.533" y2="8.19247" gradientUnits="userSpaceOnUse">
<stop stop-color="#BD712B"/>
<stop offset="1" stop-color="#E22B57" stop-opacity="0"/>
</linearGradient>
<linearGradient id="paint7_linear_131_1334" x1="122.079" y1="247.149" x2="157.555" y2="-1.91831" gradientUnits="userSpaceOnUse">
<stop stop-color="#BD832B"/>
<stop offset="1" stop-color="#E22B57" stop-opacity="0"/>
</linearGradient>
<linearGradient id="paint8_linear_131_1334" x1="111.264" y1="245.609" x2="146.74" y2="-3.45904" gradientUnits="userSpaceOnUse">
<stop stop-color="#BD832B"/>
<stop offset="1" stop-color="#E22B57" stop-opacity="0"/>
</linearGradient>
<linearGradient id="paint9_linear_131_1334" x1="125.305" y1="247.608" x2="160.781" y2="-1.45814" gradientUnits="userSpaceOnUse">
<stop stop-color="#BD712B"/>
<stop offset="1" stop-color="#E22B57" stop-opacity="0"/>
</linearGradient>
<linearGradient id="paint10_linear_131_1334" x1="183.562" y1="255.907" x2="219.038" y2="6.83888" gradientUnits="userSpaceOnUse">
<stop stop-color="#BD602B"/>
<stop offset="1" stop-color="#E2782B" stop-opacity="0"/>
</linearGradient>
<linearGradient id="paint11_linear_131_1334" x1="211.962" y1="259.95" x2="247.437" y2="10.8878" gradientUnits="userSpaceOnUse">
<stop stop-color="#BD7A2B"/>
<stop offset="1" stop-color="#E22B57" stop-opacity="0"/>
</linearGradient>
<linearGradient id="paint12_linear_131_1334" x1="131.158" y1="248.442" x2="166.634" y2="-0.623869" gradientUnits="userSpaceOnUse">
<stop stop-color="#BD832B"/>
<stop offset="1" stop-color="#E2992B" stop-opacity="0"/>
</linearGradient>
<linearGradient id="paint13_linear_131_1334" x1="169.353" y1="253.881" x2="204.828" y2="4.81826" gradientUnits="userSpaceOnUse">
<stop stop-color="#BD832B"/>
<stop offset="1" stop-color="#E2782B" stop-opacity="0"/>
</linearGradient>
<linearGradient id="paint14_linear_131_1334" x1="162.919" y1="252.966" x2="198.395" y2="3.89847" gradientUnits="userSpaceOnUse">
<stop stop-color="#BD7A2B"/>
<stop offset="1" stop-color="#E2992B" stop-opacity="0"/>
</linearGradient>
<linearGradient id="paint15_linear_131_1334" x1="94.2343" y1="243.182" x2="129.71" y2="-5.88176" gradientUnits="userSpaceOnUse">
<stop stop-color="#BD712B"/>
<stop offset="1" stop-color="#E2992B" stop-opacity="0"/>
</linearGradient>
<linearGradient id="paint16_linear_131_1334" x1="69.0675" y1="239.599" x2="104.544" y2="-9.46887" gradientUnits="userSpaceOnUse">
<stop stop-color="#BD602B"/>
<stop offset="1" stop-color="#E2992B" stop-opacity="0"/>
</linearGradient>
<linearGradient id="paint17_linear_131_1334" x1="82.1252" y1="241.457" x2="117.601" y2="-7.60899" gradientUnits="userSpaceOnUse">
<stop stop-color="#BD712B"/>
<stop offset="1" stop-color="#E2A42B" stop-opacity="0"/>
</linearGradient>
<linearGradient id="paint18_linear_131_1334" x1="167.732" y1="253.652" x2="203.208" y2="4.58445" gradientUnits="userSpaceOnUse">
<stop stop-color="#BD712B"/>
<stop offset="1" stop-color="#E2832B" stop-opacity="0"/>
</linearGradient>
<linearGradient id="paint19_linear_131_1334" x1="223.731" y1="261.628" x2="259.207" y2="12.5602" gradientUnits="userSpaceOnUse">
<stop stop-color="#BD712B"/>
<stop offset="1" stop-color="#E2A42B" stop-opacity="0"/>
</linearGradient>
<linearGradient id="paint20_linear_131_1334" x1="124.633" y1="211.685" x2="139.275" y2="126.395" gradientUnits="userSpaceOnUse">
<stop stop-color="#BD712B"/>
<stop offset="1" stop-color="#E2992B" stop-opacity="0"/>
</linearGradient>
<linearGradient id="paint21_linear_131_1334" x1="174.851" y1="220.891" x2="157.656" y2="152.328" gradientUnits="userSpaceOnUse">
<stop stop-color="#A66D2B"/>
<stop offset="1" stop-color="#AE522B" stop-opacity="0"/>
</linearGradient>
<linearGradient id="paint22_linear_131_1334" x1="99.3331" y1="42.3416" x2="99.1722" y2="42.5679" gradientUnits="userSpaceOnUse">
<stop stop-color="#FADBD1"/>
<stop offset="1" stop-color="#F9F1DD" stop-opacity="0"/>
</linearGradient>
<linearGradient id="paint23_linear_131_1334" x1="231.283" y1="8.73629" x2="189.422" y2="67.6216" gradientUnits="userSpaceOnUse">
<stop stop-color="#FAEAD1"/>
<stop offset="1" stop-color="#F9E4DD" stop-opacity="0"/>
</linearGradient>
<linearGradient id="paint24_linear_131_1334" x1="143.715" y1="179.28" x2="166.811" y2="97.3573" gradientUnits="userSpaceOnUse">
<stop stop-color="#FAC2B0"/>
<stop offset="1" stop-color="#F2AA68"/>
</linearGradient>
<linearGradient id="paint25_linear_131_1334" x1="142.052" y1="178.811" x2="165.148" y2="96.8888" gradientUnits="userSpaceOnUse">
<stop stop-color="#FAC2B0"/>
<stop offset="1" stop-color="#F29168"/>
</linearGradient>
<clipPath id="clip0_131_1334">
<rect width="307" height="241" fill="white"/>
</clipPath>
</defs>
</svg>
