<svg width="242" height="242" viewBox="0 0 242 242" fill="none" xmlns="http://www.w3.org/2000/svg">
<g clip-path="url(#clip0_131_1167)">
<path d="M109.48 0.597749C15.7334 9.49308 -34.7233 121.171 27.372 197.435C27.372 197.435 27.372 197.435 27.3581 197.435C56.0516 232.821 103.967 250.32 151.201 238.145C176.506 231.612 198.38 217.129 213.977 198.296C282.045 116.418 217.935 -9.74307 109.48 0.597749Z" fill="url(#paint0_radial_131_1167)"/>
<path d="M206.741 129.094C202.783 172.041 166.979 208.776 119.494 208.776C60.2044 208.776 18.2613 150.97 35.9691 94.9021C42.0661 75.4714 54.9684 58.4312 72.5373 47.2287C76.1761 44.9215 80.0232 42.8505 84.037 41.0576C129.577 20.8346 183.159 42.8644 201.186 89.6622C206.241 102.824 207.922 116.237 206.741 129.094Z" fill="url(#paint1_radial_131_1167)"/>
<path d="M160.756 198.435C148.465 205.024 134.41 208.762 119.48 208.762C85.467 208.762 55.9817 189.346 41.4961 160.978C47.6348 164.119 58.9539 169.109 72.1063 171.152C91.189 174.112 114.285 170.234 125.146 175.794C143.257 185.065 146.201 195.711 160.756 198.435Z" fill="url(#paint2_linear_131_1167)"/>
<path d="M87.0506 158.268C70.2039 159.421 46.8018 151.443 35.9133 147.287C33.3439 139.031 31.9551 130.261 31.9551 121.171C31.9551 117.905 32.1356 114.68 32.4828 111.511C37.2327 117.141 48.1212 128.885 61.8153 136.113C80.3563 145.911 109.703 156.725 87.0506 158.268Z" fill="url(#paint3_linear_131_1167)"/>
<path d="M194.575 166.218C191.283 171.708 187.394 176.809 183.02 181.437C171.784 178.365 159.256 172.806 149.104 164.202C131.035 148.9 128.507 142.047 86.8004 128.649C57.7041 119.295 42.3851 103.936 35.7881 95.4998C37.8436 88.7727 40.6907 82.3792 44.2322 76.4443C52.4959 85.3814 70.8148 102.894 94.0224 111.122C125.952 122.464 131.091 121.421 159.923 147.704C172.2 158.921 184.506 164.036 194.575 166.218Z" fill="url(#paint4_linear_131_1167)"/>
<path d="M207.019 121.171C207.019 130.998 205.408 140.435 202.422 149.247C193.964 149.066 180.867 145.578 166.076 130.191C140.327 103.394 102.231 98.2377 101.717 89.4814C101.203 80.7251 140.855 87.9386 165.048 101.337C182.45 110.983 195.339 117.946 206.95 117.641C206.991 118.808 207.019 119.99 207.019 121.171Z" fill="url(#paint5_linear_131_1167)"/>
<path d="M83.7037 72.4831C73.2179 67.5907 61.0517 66.8124 60.5378 70.9404C60.0239 75.0684 67.7459 88.453 81.6482 85.8817C95.5367 83.2965 91.4257 76.083 83.7037 72.4831Z" fill="url(#paint6_linear_131_1167)"/>
<path d="M201.186 89.6622C188.187 81.7537 166.007 76.3331 131.591 68.3551C102.634 61.6419 89.7314 49.6888 84.0371 41.0576C91.4119 37.7913 99.3144 35.498 107.592 34.3722C113.925 40.3904 126.994 48.6325 153.729 55.4708C168.909 59.3486 180.701 64.1437 189.728 68.8972C194.436 75.2212 198.297 82.1985 201.186 89.6622Z" fill="url(#paint7_linear_131_1167)"/>
<path d="M159.382 177.601C154.868 175.113 139.299 166.259 149.091 184.3C152.938 191.389 169.687 183.272 159.382 177.601Z" fill="url(#paint8_linear_131_1167)"/>
<path d="M138.272 168.316C136.161 168.469 137.244 172.959 139.299 173.473C141.369 173.987 145.494 167.802 138.272 168.316Z" fill="url(#paint9_linear_131_1167)"/>
<path opacity="0.45" d="M202.408 149.289C200.394 155.251 197.755 160.908 194.575 166.218C191.283 171.708 187.394 176.809 183.02 181.437C176.589 188.234 169.076 193.988 160.77 198.435C148.479 205.024 134.424 208.762 119.494 208.762C85.4809 208.762 55.9958 189.346 41.5101 160.978C39.2741 156.613 37.3991 152.041 35.927 147.287C33.3576 139.031 31.9688 130.261 31.9688 121.171C31.9688 117.905 32.1493 114.68 32.4965 111.511C33.0937 106.007 34.2048 100.642 35.7881 95.4859C35.8436 95.2913 35.9131 95.0829 35.9686 94.8883C48.6905 81.2256 72.7036 89.0646 84.7449 106.994C102.814 133.93 146.007 214.183 202.408 149.289Z" fill="url(#paint10_linear_131_1167)"/>
<path opacity="0.55" d="M202.797 148.107C201.214 153.264 198.284 160.047 194.575 166.218C155.118 231.988 56.7742 218.436 35.4971 145.87C46.4273 160.797 61.1074 172.097 80.6206 177.601C150.174 197.171 185.812 170.79 202.797 148.107Z" fill="url(#paint11_linear_131_1167)"/>
<path d="M201.186 89.6623C206.255 102.811 207.922 116.237 206.741 129.094C204.075 106.424 192.853 69.5644 149.604 52.3853C117.911 39.7929 91.3701 41.8499 72.5234 47.2288C76.1622 44.9216 80.0093 42.8506 84.0231 41.0576C129.577 20.8347 183.159 42.8784 201.186 89.6623Z" fill="url(#paint12_linear_131_1167)"/>
</g>
<defs>
<radialGradient id="paint0_radial_131_1167" cx="0" cy="0" r="1" gradientUnits="userSpaceOnUse" gradientTransform="translate(121.002 120.997) scale(103.608 103.686)">
<stop stop-color="#EFC390"/>
<stop offset="1" stop-color="#F9B5A6" stop-opacity="0"/>
</radialGradient>
<radialGradient id="paint1_radial_131_1167" cx="0" cy="0" r="1" gradientUnits="userSpaceOnUse" gradientTransform="translate(117.165 87.1454) scale(87.5714 87.6376)">
<stop stop-color="#EACCA0"/>
<stop offset="1" stop-color="#D98301"/>
</radialGradient>
<linearGradient id="paint2_linear_131_1167" x1="123.415" y1="236.418" x2="50.7242" y2="51.739" gradientUnits="userSpaceOnUse">
<stop stop-color="#A65B31"/>
<stop offset="1" stop-color="#B16E31" stop-opacity="0.2"/>
</linearGradient>
<linearGradient id="paint3_linear_131_1167" x1="102.344" y1="244.712" x2="29.6542" y2="60.0327" gradientUnits="userSpaceOnUse">
<stop stop-color="#A66231"/>
<stop offset="1" stop-color="#B18D31" stop-opacity="0.2"/>
</linearGradient>
<linearGradient id="paint4_linear_131_1167" x1="152.206" y1="225.086" x2="79.5151" y2="40.4069" gradientUnits="userSpaceOnUse">
<stop stop-color="#A64D31"/>
<stop offset="1" stop-color="#B16E31" stop-opacity="0.2"/>
</linearGradient>
<linearGradient id="paint5_linear_131_1167" x1="195.338" y1="208.109" x2="122.647" y2="23.43" gradientUnits="userSpaceOnUse">
<stop stop-color="#A64D31"/>
<stop offset="1" stop-color="#B16731" stop-opacity="0.2"/>
</linearGradient>
<linearGradient id="paint6_linear_131_1167" x1="136.691" y1="231.193" x2="64.0009" y2="46.5136" gradientUnits="userSpaceOnUse">
<stop stop-color="#A66931"/>
<stop offset="1" stop-color="#B16E31" stop-opacity="0.2"/>
</linearGradient>
<linearGradient id="paint7_linear_131_1167" x1="198.255" y1="206.961" x2="125.565" y2="22.2811" gradientUnits="userSpaceOnUse">
<stop stop-color="#A66931"/>
<stop offset="1" stop-color="#B16E31" stop-opacity="0.2"/>
</linearGradient>
<linearGradient id="paint8_linear_131_1167" x1="169.653" y1="218.219" x2="96.9628" y2="33.5403" gradientUnits="userSpaceOnUse">
<stop stop-color="#A65431"/>
<stop offset="1" stop-color="#B16E31" stop-opacity="0.2"/>
</linearGradient>
<linearGradient id="paint9_linear_131_1167" x1="160.061" y1="221.994" x2="87.3706" y2="37.3147" gradientUnits="userSpaceOnUse">
<stop stop-color="#A66231"/>
<stop offset="1" stop-color="#B15F31" stop-opacity="0.2"/>
</linearGradient>
<linearGradient id="paint10_linear_131_1167" x1="100.825" y1="211.465" x2="126.714" y2="83.9638" gradientUnits="userSpaceOnUse">
<stop stop-color="#A35A31"/>
<stop offset="1" stop-color="#B87B42" stop-opacity="0.3"/>
</linearGradient>
<linearGradient id="paint11_linear_131_1167" x1="128.318" y1="230.111" x2="118.521" y2="141.486" gradientUnits="userSpaceOnUse">
<stop stop-color="#A35C1A"/>
<stop offset="1" stop-color="#A3662E" stop-opacity="0.1"/>
</linearGradient>
<linearGradient id="paint12_linear_131_1167" x1="229.16" y1="-21.9243" x2="132.273" y2="97.0324" gradientUnits="userSpaceOnUse">
<stop stop-color="#F6E4A4"/>
<stop offset="1" stop-color="#F9E2B5" stop-opacity="0"/>
</linearGradient>
<clipPath id="clip0_131_1167">
<rect width="242" height="242" fill="white"/>
</clipPath>
</defs>
</svg>
