<svg width="11" height="21" viewBox="0 0 11 21" fill="none" xmlns="http://www.w3.org/2000/svg">
<path d="M7.33962 9.23219H3.65995C3.28701 9.23219 2.97201 8.91719 2.97201 8.54425V5.68942C2.97201 5.31647 3.28701 5.00147 3.65995 5.00147H7.33962C7.71256 5.00147 8.02756 5.31647 8.02756 5.68942C8.02756 6.33381 8.54984 6.85608 9.19423 6.85608C9.83862 6.85608 10.3609 6.33381 10.3609 5.68942C10.3609 4.02342 9.00562 2.66814 7.33962 2.66814H6.66645V1.53764C6.66645 0.89325 6.14417 0.370972 5.49978 0.370972C4.85539 0.370972 4.33312 0.89325 4.33312 1.53764V2.66814H3.65995C1.99395 2.66814 0.638672 4.02342 0.638672 5.68942V8.54425C0.638672 10.2075 1.99006 11.5609 3.65256 11.5651C3.65528 11.5651 3.65762 11.5659 3.65995 11.5659H7.33962C7.71256 11.5659 8.02756 11.8809 8.02756 12.2539V15.1087C8.02756 15.4816 7.71256 15.797 7.33962 15.797H3.65995C3.28701 15.797 2.97201 15.4816 2.97201 15.1087C2.97201 14.4643 2.44973 13.942 1.80534 13.942C1.16095 13.942 0.638672 14.4643 0.638672 15.1087C0.638672 16.7747 1.99395 18.1304 3.65995 18.1304H4.33312V19.4631C4.33312 20.1075 4.85539 20.6297 5.49978 20.6297C6.14417 20.6297 6.66645 20.1075 6.66645 19.4631V18.1304H7.33962C9.00523 18.1304 10.3609 16.7751 10.3609 15.1087V12.2539C10.3609 10.5875 9.00562 9.23219 7.33962 9.23219Z" fill="#7216CD"/>
</svg>
