<svg width="35" height="35" viewBox="0 0 35 35" fill="none" xmlns="http://www.w3.org/2000/svg">
<g clip-path="url(#clip0_340_79)">
<path d="M17.5 0C7.83501 0 0 7.83501 0 17.5C0 27.165 7.83501 35 17.5 35C27.165 35 35 27.165 35 17.5C35 7.83501 27.165 0 17.5 0ZM17.5 3.49918C20.7513 3.49918 23.7079 4.65486 26.0833 6.51554C24.9789 7.46833 22.6056 9.27555 18.9782 10.9888C17.641 8.62832 16.0665 6.23574 14.1845 3.93716C15.2527 3.67644 16.3529 3.49918 17.5 3.49918ZM11.5485 4.87272C12.6081 6.31251 14.3512 8.8632 16.1905 12.1188C12.262 13.407 7.72249 13.4497 4.21053 13.1677C5.41748 9.50195 8.09204 6.50699 11.5485 4.87272ZM17.312 14.1696C17.8034 15.1095 18.2882 16.1221 18.7667 17.1497C11.4309 18.7582 7.99586 23.5733 6.62231 26.2137C4.69759 23.8169 3.49911 20.8133 3.49911 17.5C3.49911 16.8805 3.55462 16.276 3.63371 15.6799C6.39372 16.0623 11.2793 16.2118 17.312 14.1696ZM19.9801 19.9738C21.2896 23.1738 22.439 26.6409 23.1097 30.3131C21.3901 31.0672 19.4973 31.5009 17.5 31.5009C14.1781 31.5009 11.1682 30.294 8.76709 28.3629C12.2428 23.5306 16.2717 21.0931 19.9801 19.9738ZM25.6156 28.8712C25.4382 27.8693 24.6735 24.1244 22.862 19.3308C27.1024 18.7027 30.467 19.5316 31.2915 19.7709C30.6742 23.5135 28.5785 26.752 25.6156 28.8712ZM21.8045 16.716C21.2961 15.5347 20.7492 14.3276 20.1105 13.0844C22.644 11.9885 25.3358 10.491 28.1235 8.47868C30.1999 10.9204 31.5009 14.0435 31.5009 17.5C27.7668 16.6711 24.571 16.4896 21.8045 16.716Z" fill="white"/>
</g>
<defs>
<clipPath id="clip0_340_79">
<rect width="35" height="35" rx="17.5" fill="white"/>
</clipPath>
</defs>
</svg>
