<svg width="35" height="35" viewBox="0 0 35 35" fill="none" xmlns="http://www.w3.org/2000/svg">
<g clip-path="url(#clip0_340_81)">
<path d="M17.5 0C7.83569 0 0 8.03378 0 17.9424C0 25.871 5.01375 32.5951 11.9682 34.9671C12.843 35.1314 13.1624 34.5772 13.1624 34.1041C13.1624 33.677 13.1464 32.2621 13.1378 30.764C8.27148 31.8482 7.24288 28.6483 7.24288 28.6483C6.44608 26.5763 5.29997 26.0244 5.29997 26.0244C3.70956 24.9117 5.42062 24.9336 5.42062 24.9336C7.17767 25.0585 8.10271 26.7822 8.10271 26.7822C9.66431 29.5244 12.2 28.7315 13.1955 28.2715C13.3546 27.1151 13.8074 26.3222 14.3063 25.8754C10.4216 25.4221 6.335 23.8823 6.335 17.0072C6.335 15.0469 7.01753 13.448 8.13477 12.1919C7.95638 11.7364 7.35396 9.91079 8.30778 7.44133C8.30778 7.44133 9.77539 6.95948 13.1207 9.28113C14.5156 8.88142 16.0121 8.6843 17.5 8.67771C18.9868 8.6843 20.4843 8.88359 21.8814 9.2833C25.2203 6.95948 26.6901 7.4435 26.6901 7.4435C27.6471 9.91517 27.0447 11.7385 26.8652 12.1919C27.9867 13.448 28.6639 15.0469 28.6639 17.0072C28.6639 23.8998 24.5709 25.4177 20.6723 25.8623C21.3025 26.4186 21.8601 27.5093 21.8601 29.1827C21.8601 31.581 21.8365 33.515 21.8365 34.1063C21.8365 34.5838 22.1548 35.1423 23.0414 34.9671C29.9906 32.5907 35 25.8667 35 17.9424C35 8.03378 27.1643 0 17.5 0Z" fill="white"/>
</g>
<defs>
<clipPath id="clip0_340_81">
<rect width="35" height="35" fill="white"/>
</clipPath>
</defs>
</svg>
