<svg width="2300" height="2300" viewBox="0 0 2300 2300" fill="none" xmlns="http://www.w3.org/2000/svg">
<g clip-path="url(#clip0_217_134)">
<circle cx="1096.5" cy="1185.5" r="581.5" fill="url(#paint0_linear_217_134)"/>
<path d="M1402 690.501C1487.85 826.365 1293.99 928.448 1022.5 1100C751.004 1271.55 739 1272.5 550 1382.5C491.5 1252 470 939.5 750 718.498C954 568.5 1226 572.999 1402 690.501Z" fill="url(#paint1_linear_217_134)"/>
<path d="M330.25 1393.57C-638.25 2268.08 1553.25 1393.58 1553.25 1393.58" stroke="url(#paint2_linear_217_134)" stroke-width="70" stroke-linecap="round"/>
<path d="M1577.44 408.958C2820.69 12.623 1574.97 992.045 961.548 1465.56" stroke="url(#paint3_linear_217_134)" stroke-width="70" stroke-linecap="round"/>
<path d="M494.253 1970.5C972.934 1936.01 1510.07 1633.53 2036.5 1130.71" stroke="url(#paint4_linear_217_134)" stroke-width="20" stroke-linecap="round"/>
<path d="M0 1521.28C599.031 1412.93 1310.19 1003.65 2037.67 377.449" stroke="url(#paint5_linear_217_134)" stroke-width="20" stroke-linecap="round"/>
</g>
<defs>
<linearGradient id="paint0_linear_217_134" x1="820" y1="692.5" x2="1298.5" y2="1695.5" gradientUnits="userSpaceOnUse">
<stop stop-color="#FFDB82"/>
<stop offset="0.597223" stop-color="#FFA122"/>
<stop offset="1" stop-color="#941E0A"/>
</linearGradient>
<linearGradient id="paint1_linear_217_134" x1="767.137" y1="705.956" x2="1018.23" y2="1103.33" gradientUnits="userSpaceOnUse">
<stop stop-color="#FFDB82"/>
</linearGradient>
<linearGradient id="paint2_linear_217_134" x1="106.5" y1="1761" x2="1290" y2="1578.5" gradientUnits="userSpaceOnUse">
<stop stop-color="#F5F2EE"/>
<stop offset="1" stop-color="#F5F2EE" stop-opacity="0"/>
</linearGradient>
<linearGradient id="paint3_linear_217_134" x1="2095.91" y1="350.158" x2="1320.11" y2="1355.87" gradientUnits="userSpaceOnUse">
<stop stop-color="#F5F2EE"/>
<stop offset="1" stop-color="#F5F2EE" stop-opacity="0"/>
</linearGradient>
<linearGradient id="paint4_linear_217_134" x1="494" y1="1965" x2="2055" y2="1125" gradientUnits="userSpaceOnUse">
<stop offset="0.128465" stop-color="#FA8D23" stop-opacity="0"/>
<stop offset="0.500551" stop-color="#FA8D23"/>
<stop offset="0.862853" stop-color="#FA8D23" stop-opacity="0"/>
</linearGradient>
<linearGradient id="paint5_linear_217_134" x1="0.498137" y1="1515.32" x2="2096.9" y2="437.391" gradientUnits="userSpaceOnUse">
<stop offset="0.128465" stop-color="#FA8D23" stop-opacity="0"/>
<stop offset="0.500551" stop-color="#B93D07"/>
<stop offset="0.862853" stop-color="#FA8D23" stop-opacity="0"/>
</linearGradient>
<clipPath id="clip0_217_134">
<rect width="2300" height="2300" fill="white"/>
</clipPath>
</defs>
</svg>
