<svg width="241" height="242" viewBox="0 0 241 242" fill="none" xmlns="http://www.w3.org/2000/svg">
<g clip-path="url(#clip0_131_1365)">
<path d="M109.022 0.59923C15.6665 9.48897 -34.5799 121.166 27.2606 197.436C55.8268 232.81 103.543 250.32 150.59 238.147C175.788 231.615 197.569 217.135 213.1 198.295C280.872 116.418 217.038 -9.7553 109.022 0.59923Z" fill="url(#paint0_radial_131_1365)"/>
<path d="M213.603 120.998C213.603 123.759 213.486 126.487 213.251 129.197C213.033 131.723 212.715 134.215 212.296 136.673C211.894 139.08 211.391 141.454 210.822 143.778C209.129 150.563 206.7 157.062 203.634 163.157C202.645 165.11 201.59 167.029 200.484 168.915C198.407 172.4 196.128 175.751 193.615 178.933C192.341 180.549 191.035 182.115 189.661 183.63C180.831 193.48 169.941 201.427 157.693 206.797C156.789 207.201 155.867 207.572 154.946 207.942C152.215 209.037 149.433 209.996 146.585 210.838C144.558 211.427 142.514 211.949 140.436 212.404C134.019 213.801 127.351 214.542 120.515 214.542C94.1104 214.542 70.2857 203.497 53.3302 185.752C51.3197 183.647 49.4097 181.441 47.6002 179.152C43.9142 174.505 40.6806 169.487 37.9161 164.184C37.2125 162.837 36.5423 161.456 35.9056 160.059C33.5768 154.991 31.7003 149.688 30.3096 144.182C28.4164 136.757 27.4111 128.978 27.4111 120.964C27.4111 116.031 27.7965 111.199 28.5169 106.485C28.8017 104.666 29.1201 102.882 29.5054 101.114C29.9243 99.1271 30.4269 97.1741 30.9631 95.2379C31.9683 91.6853 33.1914 88.2002 34.5988 84.8328C37.1454 78.7211 40.3288 72.9293 44.0483 67.5585C46.3269 64.2753 48.8065 61.1437 51.4705 58.1804C56.5135 52.5907 62.21 47.6239 68.4427 43.381C68.6437 43.2464 68.8448 43.1117 69.0458 42.977C73.2009 40.1989 77.5906 37.7576 82.1813 35.6699C91.2957 31.5281 101.181 28.8174 111.569 27.8408C114.501 27.5546 117.466 27.4199 120.465 27.4199C129.412 27.4199 138.074 28.6995 146.267 31.0566C149.752 32.0668 153.153 33.2622 156.454 34.6597C157.693 35.1816 158.916 35.7204 160.123 36.2928C165.149 38.6668 169.924 41.4953 174.414 44.6943C179.273 48.1795 183.78 52.1024 187.885 56.4294C195.759 64.7467 202.126 74.4951 206.549 85.2706C207.102 86.6175 207.638 87.9981 208.124 89.3787C209.699 93.7899 210.956 98.3526 211.86 103.05C213.016 108.892 213.603 114.886 213.603 120.998Z" fill="url(#paint1_radial_131_1365)"/>
<path d="M213.603 120.998C213.603 128.861 212.631 136.488 210.822 143.778C164.328 123.742 84.3761 160.614 30.3096 144.199C28.4164 136.774 27.4111 128.995 27.4111 120.981C27.4111 116.048 27.7965 111.216 28.5169 106.501C123.531 140.343 158.079 93.2511 211.894 103.1C213.016 108.892 213.603 114.886 213.603 120.998Z" fill="url(#paint2_linear_131_1365)"/>
<path d="M208.174 89.4291C157.542 80.8593 98.6169 115.947 30.9961 95.2546C32.0014 91.7021 33.2244 88.2169 34.6318 84.8496C89.5192 106.316 155.699 78.9736 206.599 85.321C207.152 86.6848 207.688 88.0485 208.174 89.4291Z" fill="url(#paint3_linear_131_1365)"/>
<path d="M187.935 56.4967C134.69 89.5134 67.4377 74.4109 44.082 67.5921C46.3606 64.3089 48.8403 61.1773 51.5042 58.2141C117.986 75.2359 159.503 54.5774 174.465 44.7616C179.324 48.2299 183.831 52.1697 187.935 56.4967Z" fill="url(#paint4_linear_131_1365)"/>
<path d="M160.173 36.3433C137.79 50.8902 107.481 41.1586 68.4766 43.4147C72.816 40.4683 77.4067 37.8923 82.2152 35.7036C105.822 36.7306 139.147 44.6101 156.504 34.6934C157.744 35.2153 158.967 35.7709 160.173 36.3433Z" fill="url(#paint5_linear_131_1365)"/>
<path d="M146.334 31.0903C140.034 34.1714 128.34 36.7979 111.636 27.8745C114.568 27.5883 117.533 27.4536 120.532 27.4536C129.479 27.4536 138.124 28.7164 146.334 31.0903Z" fill="url(#paint6_linear_131_1365)"/>
<path d="M203.633 163.157C202.645 165.11 201.589 167.029 200.484 168.915C160.491 150.715 86.671 170.952 37.9324 164.218C37.2287 162.871 36.5585 161.49 35.9219 160.093C99.8064 168.023 169.086 141.875 203.633 163.157Z" fill="url(#paint7_linear_131_1365)"/>
<path d="M146.585 210.821C144.557 211.411 142.513 211.932 140.436 212.387C123.246 209.575 70.1343 179.32 53.3296 185.752C51.3191 183.647 49.4091 181.441 47.5996 179.152C84.9284 178.781 124.352 209.037 146.585 210.821Z" fill="url(#paint8_linear_131_1365)"/>
<path d="M189.677 183.63C180.847 193.48 169.957 201.427 157.709 206.797C140.151 201.46 130.014 191.021 123.882 188.075C114.919 183.748 112.221 180.297 146.752 177.704C164.344 176.357 179.272 179.876 189.677 183.63Z" fill="url(#paint9_linear_131_1365)"/>
<path opacity="0.45" d="M212.313 136.673C206.164 173.68 177.882 204.171 140.453 212.404C73.9882 226.934 15.1971 167.467 29.5388 101.147C37.2458 115.795 54.3856 131.42 91.7814 137.245C148.378 146.034 185.237 130.359 212.313 136.673Z" fill="url(#paint10_linear_131_1365)"/>
<path opacity="0.55" d="M192.124 180.785C191.336 181.744 190.515 182.704 189.678 183.63C180.848 193.48 169.958 201.426 157.71 206.797C156.805 207.201 155.884 207.572 154.962 207.942C152.231 209.037 149.45 209.996 146.602 210.838C144.575 211.427 142.531 211.949 140.453 212.404C134.036 213.801 127.368 214.542 120.532 214.542C94.1272 214.542 70.3025 203.497 53.347 185.752C51.6213 183.933 49.9626 182.064 48.3877 180.111C63.6845 185.886 85.8841 187.048 118.069 179.051C146.351 172.013 171.03 173.932 192.124 180.785Z" fill="url(#paint11_linear_131_1365)"/>
<path d="M213.602 120.998C213.602 123.759 213.485 126.487 213.251 129.197C212.983 108.101 205.728 82.863 180.244 60.8912C131.322 18.6986 81.695 37.202 69.0957 43.0107C73.2508 40.2326 77.6405 37.7913 82.2312 35.7036C91.3456 31.5618 101.231 28.8511 111.618 27.8745C114.55 27.5883 117.516 27.4536 120.515 27.4536C129.462 27.4536 138.124 28.7332 146.317 31.0903C149.802 32.1005 153.203 33.2959 156.503 34.6934C157.743 35.2153 158.966 35.7541 160.173 36.3265C165.199 38.7005 169.974 41.529 174.464 44.728C179.323 48.2132 183.83 52.1361 187.935 56.4631C195.809 64.7804 202.176 74.5288 206.599 85.3043C207.152 86.6512 207.688 88.0318 208.174 89.4124C209.749 93.8236 211.006 98.3863 211.91 103.084C213.016 108.892 213.602 114.886 213.602 120.998Z" fill="url(#paint12_linear_131_1365)"/>
</g>
<defs>
<radialGradient id="paint0_radial_131_1365" cx="0" cy="0" r="1" gradientUnits="userSpaceOnUse" gradientTransform="translate(120.5 120.99) scale(111.503 112.05)">
<stop stop-color="#FFB16C"/>
<stop offset="1" stop-color="#FFA360" stop-opacity="0"/>
</radialGradient>
<radialGradient id="paint1_radial_131_1365" cx="0" cy="0" r="1" gradientUnits="userSpaceOnUse" gradientTransform="translate(105.736 68.1713) scale(152.503 153.251)">
<stop stop-color="#FFA360"/>
<stop offset="1" stop-color="#F22749"/>
</radialGradient>
<linearGradient id="paint2_linear_131_1365" x1="104.176" y1="6.60671" x2="141.582" y2="265.841" gradientUnits="userSpaceOnUse">
<stop stop-color="#FFBB71"/>
<stop offset="1" stop-color="#FFBB71" stop-opacity="0"/>
</linearGradient>
<linearGradient id="paint3_linear_131_1365" x1="107.271" y1="6.15986" x2="144.677" y2="265.393" gradientUnits="userSpaceOnUse">
<stop stop-color="#FFBB71"/>
<stop offset="1" stop-color="#FFBB71" stop-opacity="0"/>
</linearGradient>
<linearGradient id="paint4_linear_131_1365" x1="108.015" y1="6.05266" x2="145.421" y2="265.286" gradientUnits="userSpaceOnUse">
<stop stop-color="#FFBB71"/>
<stop offset="1" stop-color="#FFBB71" stop-opacity="0"/>
</linearGradient>
<linearGradient id="paint5_linear_131_1365" x1="109.467" y1="5.84278" x2="146.873" y2="265.078" gradientUnits="userSpaceOnUse">
<stop stop-color="#FFBB71"/>
<stop offset="1" stop-color="#FFBB71" stop-opacity="0"/>
</linearGradient>
<linearGradient id="paint6_linear_131_1365" x1="125.272" y1="3.56209" x2="162.678" y2="262.799" gradientUnits="userSpaceOnUse">
<stop stop-color="#FFBB71"/>
<stop offset="1" stop-color="#FFBB71" stop-opacity="0"/>
</linearGradient>
<linearGradient id="paint7_linear_131_1365" x1="97.7637" y1="7.53213" x2="135.17" y2="266.766" gradientUnits="userSpaceOnUse">
<stop stop-color="#FFBB71"/>
<stop offset="1" stop-color="#FFBB71" stop-opacity="0"/>
</linearGradient>
<linearGradient id="paint8_linear_131_1365" x1="70.8681" y1="11.4121" x2="108.274" y2="270.647" gradientUnits="userSpaceOnUse">
<stop stop-color="#FFBB71"/>
<stop offset="1" stop-color="#FFBB71" stop-opacity="0"/>
</linearGradient>
<linearGradient id="paint9_linear_131_1365" x1="128.073" y1="3.15905" x2="165.479" y2="262.393" gradientUnits="userSpaceOnUse">
<stop stop-color="#FFBB71"/>
<stop offset="1" stop-color="#FFBB71" stop-opacity="0"/>
</linearGradient>
<linearGradient id="paint10_linear_131_1365" x1="107.441" y1="212.828" x2="125.983" y2="83.6714" gradientUnits="userSpaceOnUse">
<stop stop-color="#D8274D"/>
<stop offset="1" stop-color="#F22749" stop-opacity="0"/>
</linearGradient>
<linearGradient id="paint11_linear_131_1365" x1="123.748" y1="212.108" x2="116.642" y2="148.467" gradientUnits="userSpaceOnUse">
<stop stop-color="#A9273E"/>
<stop offset="1" stop-color="#B62738" stop-opacity="0"/>
</linearGradient>
<linearGradient id="paint12_linear_131_1365" x1="207.081" y1="7.32104" x2="136.301" y2="91.1005" gradientUnits="userSpaceOnUse">
<stop stop-color="#FFECB8"/>
<stop offset="1" stop-color="#FFD371" stop-opacity="0.2"/>
</linearGradient>
<clipPath id="clip0_131_1365">
<rect width="241" height="242" fill="white"/>
</clipPath>
</defs>
</svg>
