<svg width="100" height="100" viewBox="0 0 100 100" fill="none" xmlns="http://www.w3.org/2000/svg">
<path d="M90.8959 40.8717H59.0986V9.10512C59.0986 4.07682 55.0411 0 50.0121 0C44.9832 0 40.9278 4.07682 40.9278 9.10733V40.8938H9.11514C4.08618 40.8938 -0.00219921 44.9706 3.57645e-06 50.0011C-0.00219921 52.5141 1.01329 54.818 2.65877 56.4632C4.30646 58.1129 6.57973 59.1547 9.09091 59.1547H40.9278V90.8971C40.9278 93.4123 41.9257 95.6897 43.5734 97.3328C45.2211 98.9802 47.4877 100 50.0033 100C55.0301 100 59.0986 95.9232 59.0986 90.8971V59.1525H90.8959C95.9248 59.1525 100.002 55.0404 100 50.0121C99.9978 44.986 95.9204 40.8717 90.8959 40.8717Z" fill="#AA82FF"/>
</svg>
