<svg width="242" height="242" viewBox="0 0 242 242" fill="none" xmlns="http://www.w3.org/2000/svg">
<g clip-path="url(#clip0_131_1404)">
<path d="M109.475 0.598538C15.7356 9.48778 -34.7233 121.177 27.3711 197.441C56.0667 232.818 103.985 250.317 151.216 238.148C176.519 231.62 198.397 217.138 213.982 198.294C282.042 116.437 217.932 -9.75037 109.475 0.598538Z" fill="url(#paint0_radial_131_1404)"/>
<path d="M120.866 208.61C87.9094 208.61 59.1974 190.339 44.3334 163.36C11.5409 103.874 56.772 31.6617 122.8 33.7774C164.802 34.6302 200.282 65.6113 207.051 106.81C215.933 159.982 174.881 208.61 120.866 208.61Z" fill="url(#paint1_radial_131_1404)"/>
<g opacity="0.75">
<path d="M155.56 135.315C151.938 134.413 150.938 138.923 152.987 139.94C155.035 140.973 160.181 144.056 161.214 141.99C162.246 139.94 159.673 136.348 155.56 135.315Z" fill="#8E3316"/>
<path d="M191.532 97.265C188.025 98.0687 183.829 99.84 187.418 102.415C191.024 104.99 196.661 103.957 197.186 100.873C197.694 97.7735 198.218 95.7234 191.532 97.265Z" fill="#8E3316"/>
<path d="M121.129 180.056C113.59 175.53 102.626 173.89 101.594 178.515C100.562 183.14 107.756 190.34 116.491 189.306C125.242 188.289 126.274 183.14 121.129 180.056Z" fill="#8E3316"/>
<path d="M145.711 205.018C138.91 207.036 131.765 208.249 124.374 208.528C126.062 197.818 136.239 201.197 141.68 202.673C143.269 203.116 144.597 203.985 145.711 205.018Z" fill="#8E3316"/>
<path d="M73.3417 179.548C76.6685 181.007 78.9956 173.889 74.3741 167.723C69.7527 161.556 67.6878 153.831 62.0339 152.29C56.38 150.748 53.299 170.806 73.3417 179.548Z" fill="#8E3316"/>
<path d="M50.7251 154.34C48.906 154.668 48.1522 158.457 52.2656 158.965C56.379 159.49 56.379 153.323 50.7251 154.34Z" fill="#8E3316"/>
<path d="M96.4652 133.265C92.8435 132.937 89.2709 134.806 89.7789 138.923C90.287 143.04 95.9408 138.923 98.5138 138.923C101.087 138.923 102.119 133.773 96.4652 133.265Z" fill="#8E3316"/>
<path d="M131.928 85.44C128.814 83.964 128.323 90.5899 130.896 91.6068C133.469 92.64 140.663 89.5402 131.928 85.44Z" fill="#8E3316"/>
</g>
<path d="M99.0371 118.865C81.5675 121.948 78.9946 122.457 63.0653 135.84C52.5278 144.68 41.5314 141.826 35.3039 138.874C34.1404 133.166 33.5176 127.246 33.5176 121.177C33.5176 96.3136 43.8913 73.8609 60.5416 57.9521C63.9667 59.9858 67.5065 62.7412 70.2597 66.415C77.9621 76.6983 76.4216 80.8149 99.0371 92.6399C121.636 104.465 116.507 115.781 99.0371 118.865Z" fill="url(#paint2_linear_131_1404)"/>
<path d="M199.824 83.7178C183.699 80.3392 172.702 98.5933 161.722 97.2648C148.874 95.7232 152.479 76.6982 141.679 56.64C136.271 46.6027 135.894 39.6488 136.861 35.2206C164.77 40.3704 188.009 58.8049 199.824 83.7178Z" fill="url(#paint3_linear_131_1404)"/>
<path d="M208.232 121.177C208.232 155.11 188.927 184.517 160.706 199.015C154.266 188.83 164.705 181.27 177.144 173.381C192.565 163.606 178.176 159.489 180.733 143.548C183.306 127.606 173.538 126.573 178.16 113.206C181.454 103.661 198.628 112.714 208.183 118.684C208.215 119.504 208.232 120.341 208.232 121.177Z" fill="url(#paint4_linear_131_1404)"/>
<path d="M126.274 147.664C116.933 150.567 111.885 139.431 100.069 142.006C88.2537 144.581 78.4864 165.656 94.4156 165.148C110.345 164.639 114.458 162.573 126.274 170.806C138.09 179.039 151.971 173.381 156.084 160.523C160.181 147.664 157.608 137.89 126.274 147.664Z" fill="url(#paint5_linear_131_1404)"/>
<path d="M145.792 109.09C140.875 110.664 139.63 113.206 141.17 116.29C142.711 119.373 148.873 118.865 151.953 123.49C155.034 128.115 162.753 133.773 164.802 123.49C166.867 113.206 157.099 105.482 145.792 109.09Z" fill="url(#paint6_linear_131_1404)"/>
<path opacity="0.5" d="M127.815 82.3401C126.897 89.1957 120.62 82.3401 110.345 80.29C100.07 78.2399 95.9564 72.0568 100.578 67.9402C105.199 63.8236 111.361 60.7403 117.54 64.332C123.701 67.9402 128.831 74.6317 127.815 82.3401Z" fill="#8E3316"/>
<path d="M117.014 41.7153C104.166 41.7153 98.0042 48.9152 86.1883 53.0318C79.1415 55.4756 73.5695 52.6382 70.21 49.9485C84.5004 39.7472 101.986 33.7445 120.882 33.7445C121.537 33.7445 122.177 33.7445 122.816 33.7773C123.717 37.4839 123.389 41.7153 117.014 41.7153Z" fill="url(#paint7_linear_131_1404)"/>
<path opacity="0.45" d="M204.068 147.927C196.94 170.15 181.158 188.502 160.705 199.015C155.937 201.459 150.922 203.476 145.71 205.034C138.909 207.052 131.764 208.265 124.373 208.544C123.21 208.593 122.046 208.61 120.866 208.61C87.9097 208.61 59.1977 190.339 44.3337 163.36C40.1712 155.816 37.0902 147.582 35.3039 138.874C34.1404 133.166 33.5176 127.245 33.5176 121.177C33.5176 110.615 35.3858 100.496 38.8109 91.1309C48.693 120.669 71.3085 158.784 122.718 165.853C132.747 167.231 142.121 167.411 150.873 166.657C172.341 164.77 190.007 157.259 204.068 147.927Z" fill="url(#paint8_linear_131_1404)"/>
<path opacity="0.45" d="M208.23 121.177C208.23 130.509 206.772 139.497 204.068 147.927C196.939 170.15 181.157 188.502 160.705 199.015C155.936 201.459 150.921 203.476 145.71 205.034C138.909 207.052 131.763 208.265 124.372 208.544C123.209 208.593 122.045 208.61 120.865 208.61C87.9089 208.61 59.197 190.339 44.333 163.36C59.4428 169.576 77.4369 173.824 98.7742 174.66C119.472 175.48 136.647 172.282 150.872 166.64C181.452 154.536 198.496 131.116 207.739 111.829C207.984 114.076 208.132 116.372 208.197 118.668C208.214 119.504 208.23 120.341 208.23 121.177Z" fill="url(#paint9_linear_131_1404)"/>
<path d="M207.068 106.859C207.068 106.859 194.63 61.2651 137.435 46.2584C103.151 37.2543 79.3557 45.3727 65.8027 53.3107C109.084 17.9506 175.275 31.9897 199.825 83.7178C205.528 95.7068 206.658 105.186 207.068 106.859Z" fill="url(#paint10_linear_131_1404)"/>
</g>
<defs>
<radialGradient id="paint0_radial_131_1404" cx="0" cy="0" r="1" gradientUnits="userSpaceOnUse" gradientTransform="translate(120.995 121.005) scale(104.389 104.47)">
<stop stop-color="#DD896F"/>
<stop offset="1" stop-color="#FFBEA9" stop-opacity="0"/>
</radialGradient>
<radialGradient id="paint1_radial_131_1404" cx="0" cy="0" r="1" gradientUnits="userSpaceOnUse" gradientTransform="translate(125.203 86.9622) scale(106.022 106.104)">
<stop stop-color="#E57E33"/>
<stop offset="1" stop-color="#C64F1C"/>
</radialGradient>
<linearGradient id="paint2_linear_131_1404" x1="63.4675" y1="-13.6174" x2="83.5387" y2="237.849" gradientUnits="userSpaceOnUse">
<stop stop-color="#F29036"/>
<stop offset="1" stop-color="#F29C36" stop-opacity="0"/>
</linearGradient>
<linearGradient id="paint3_linear_131_1404" x1="161.498" y1="-21.4419" x2="181.569" y2="230.024" gradientUnits="userSpaceOnUse">
<stop stop-color="#F26336"/>
<stop offset="1" stop-color="#F2C936" stop-opacity="0"/>
</linearGradient>
<linearGradient id="paint4_linear_131_1404" x1="169.282" y1="-22.0634" x2="189.353" y2="229.403" gradientUnits="userSpaceOnUse">
<stop stop-color="#F27A36"/>
<stop offset="1" stop-color="#F27A36" stop-opacity="0"/>
</linearGradient>
<linearGradient id="paint5_linear_131_1404" x1="108.068" y1="-17.1774" x2="128.139" y2="234.289" gradientUnits="userSpaceOnUse">
<stop stop-color="#F28536"/>
<stop offset="1" stop-color="#F27A36" stop-opacity="0"/>
</linearGradient>
<linearGradient id="paint6_linear_131_1404" x1="141.893" y1="-19.8777" x2="161.965" y2="231.589" gradientUnits="userSpaceOnUse">
<stop stop-color="#F29C36"/>
<stop offset="1" stop-color="#F27A36" stop-opacity="0"/>
</linearGradient>
<linearGradient id="paint7_linear_131_1404" x1="91.9945" y1="-15.8946" x2="112.066" y2="235.572" gradientUnits="userSpaceOnUse">
<stop stop-color="#F27A36"/>
<stop offset="1" stop-color="#F27A36" stop-opacity="0"/>
</linearGradient>
<linearGradient id="paint8_linear_131_1404" x1="107.587" y1="234.364" x2="120.71" y2="114.802" gradientUnits="userSpaceOnUse">
<stop stop-color="#8E2416"/>
<stop offset="1" stop-color="#8E3316" stop-opacity="0.3"/>
</linearGradient>
<linearGradient id="paint9_linear_131_1404" x1="116.396" y1="229.224" x2="131.063" y2="104.263" gradientUnits="userSpaceOnUse">
<stop stop-color="#6F1B16"/>
<stop offset="1" stop-color="#653216" stop-opacity="0.3"/>
</linearGradient>
<linearGradient id="paint10_linear_131_1404" x1="184.313" y1="-14.4077" x2="129.26" y2="94.0703" gradientUnits="userSpaceOnUse">
<stop stop-color="#FFC7B5"/>
<stop offset="1" stop-color="#FFC1B3" stop-opacity="0"/>
</linearGradient>
<clipPath id="clip0_131_1404">
<rect width="242" height="242" fill="white"/>
</clipPath>
</defs>
</svg>
