<svg width="32" height="32" viewBox="0 0 32 32" fill="none" xmlns="http://www.w3.org/2000/svg">
<path d="M29.3333 16C29.3333 8.65329 23.3467 2.66663 16 2.66663C8.65332 2.66663 2.66666 8.65329 2.66666 16C2.66666 19.8666 4.33332 23.3466 6.97332 25.7866C6.97332 25.8 6.97332 25.8 6.95999 25.8133C7.09332 25.9466 7.25332 26.0533 7.38666 26.1733C7.46666 26.24 7.53332 26.3066 7.61332 26.36C7.85332 26.56 8.11999 26.7466 8.37332 26.9333C8.46666 27 8.54666 27.0533 8.63999 27.12C8.89332 27.2933 9.15999 27.4533 9.43999 27.6C9.53332 27.6533 9.63999 27.72 9.73332 27.7733C9.99999 27.92 10.28 28.0533 10.5733 28.1733C10.68 28.2266 10.7867 28.28 10.8933 28.32C11.1867 28.44 11.48 28.5466 11.7733 28.64C11.88 28.68 11.9867 28.72 12.0933 28.7466C12.4133 28.84 12.7333 28.92 13.0533 29C13.1467 29.0266 13.24 29.0533 13.3467 29.0666C13.72 29.1466 14.0933 29.2 14.48 29.24C14.5333 29.24 14.5867 29.2533 14.64 29.2666C15.0933 29.3066 15.5467 29.3333 16 29.3333C16.4533 29.3333 16.9067 29.3066 17.3467 29.2666C17.4 29.2666 17.4533 29.2533 17.5067 29.24C17.8933 29.2 18.2667 29.1466 18.64 29.0666C18.7333 29.0533 18.8267 29.0133 18.9333 29C19.2533 28.92 19.5867 28.8533 19.8933 28.7466C20 28.7066 20.1067 28.6666 20.2133 28.64C20.5067 28.5333 20.8133 28.44 21.0933 28.32C21.2 28.28 21.3067 28.2266 21.4133 28.1733C21.6933 28.0533 21.9733 27.92 22.2533 27.7733C22.36 27.72 22.4533 27.6533 22.5467 27.6C22.8133 27.44 23.08 27.2933 23.3467 27.12C23.44 27.0666 23.52 27 23.6133 26.9333C23.88 26.7466 24.1333 26.56 24.3733 26.36C24.4533 26.2933 24.52 26.2266 24.6 26.1733C24.7467 26.0533 24.8933 25.9333 25.0267 25.8133C25.0267 25.8 25.0267 25.8 25.0133 25.7866C27.6667 23.3466 29.3333 19.8666 29.3333 16ZM22.5867 22.6266C18.9733 20.2 13.0533 20.2 9.41332 22.6266C8.82666 23.0133 8.34666 23.4666 7.94666 23.96C5.91999 21.9066 4.66666 19.0933 4.66666 16C4.66666 9.74663 9.74666 4.66663 16 4.66663C22.2533 4.66663 27.3333 9.74663 27.3333 16C27.3333 19.0933 26.08 21.9066 24.0533 23.96C23.6667 23.4666 23.1733 23.0133 22.5867 22.6266Z" fill="#969696"/>
<path d="M16 9.23962C13.24 9.23962 11 11.4796 11 14.2396C11 16.9463 13.12 19.1463 15.9333 19.2263C15.9733 19.2263 16.0267 19.2263 16.0533 19.2263C16.08 19.2263 16.12 19.2263 16.1467 19.2263C16.16 19.2263 16.1733 19.2263 16.1733 19.2263C18.8667 19.133 20.9867 16.9463 21 14.2396C21 11.4796 18.76 9.23962 16 9.23962Z" fill="#969696"/>
</svg>
