<svg width="408" height="428" viewBox="0 0 408 428" fill="none" xmlns="http://www.w3.org/2000/svg">
<path d="M365.483 238.341C357.878 232.763 353.334 223.803 353.334 214.363C353.334 204.923 357.878 195.963 365.472 190.395L400.608 164.635C406.208 160.517 408.523 153.275 406.336 146.672C397.291 119.493 382.987 94.7039 363.808 72.9759C359.189 67.7706 351.744 66.1279 345.376 68.9226L305.813 86.3199C297.195 90.1172 287.157 89.5732 278.976 84.8479C270.805 80.1332 265.323 71.7279 264.288 62.3519L259.531 18.9172C258.773 12.0052 253.632 6.37323 246.827 4.9759C219.125 -0.688105 190.016 -0.784102 161.824 4.86923C154.976 6.24523 149.824 11.8772 149.067 18.8212L144.352 61.9786C143.317 71.3652 137.835 79.7706 129.643 84.4852C121.472 89.1999 111.467 89.7652 102.816 85.9572L63.0401 68.4639C56.7255 65.6692 49.2588 67.2906 44.6402 72.4852C25.3975 94.1279 11.0295 118.885 1.88815 146.043C-0.33052 152.635 1.97348 159.92 7.59481 164.048L42.5068 189.648C50.1228 195.237 54.6668 204.197 54.6668 213.637C54.6668 223.077 50.1228 232.037 42.5282 237.605L7.39214 263.365C1.79214 267.483 -0.522519 274.725 1.66415 281.328C10.7095 308.507 25.0135 333.296 44.1921 355.024C48.8108 360.24 56.2775 361.893 62.6242 359.077L102.187 341.68C110.805 337.883 120.832 338.427 129.024 343.152C137.195 347.867 142.677 356.272 143.712 365.648L148.469 409.083C149.227 415.995 154.368 421.627 161.173 423.024C175.189 425.883 189.589 427.333 204 427.333C218.059 427.333 232.245 425.915 246.165 423.12C253.013 421.744 258.165 416.112 258.923 409.168L263.648 366.011C264.683 356.624 270.165 348.219 278.357 343.504C286.528 338.8 296.544 338.245 305.184 342.032L344.96 359.525C351.296 362.331 358.741 360.709 363.36 355.504C382.603 333.861 396.971 309.104 406.112 281.947C408.331 275.355 406.027 268.069 400.405 263.941L365.483 238.341ZM204 288.667C162.763 288.667 129.333 255.237 129.333 214C129.333 172.763 162.763 139.333 204 139.333C245.237 139.333 278.667 172.763 278.667 214C278.667 255.237 245.237 288.667 204 288.667Z" fill="rgb(170, 130, 255)"/>
</svg>
