<svg width="32" height="32" viewBox="0 0 32 32" fill="none" xmlns="http://www.w3.org/2000/svg">
<g clip-path="url(#clip0_7_13)">
<mask id="mask0_7_13" style="mask-type:luminance" maskUnits="userSpaceOnUse" x="0" y="0" width="32" height="32">
<path d="M32 0H0V32H32V0Z" fill="white"/>
</mask>
<g mask="url(#mask0_7_13)">
<path d="M16 18.6666C17.4728 18.6666 18.6667 17.4727 18.6667 15.9999C18.6667 14.5272 17.4728 13.3333 16 13.3333C14.5273 13.3333 13.3333 14.5272 13.3333 15.9999C13.3333 17.4727 14.5273 18.6666 16 18.6666Z" stroke="#969696" stroke-width="2"/>
<path d="M7.19807 7.83887C5.95843 9.17499 5.05827 10.7606 4.53414 12.4594L6.66655 13.6905C8.44433 14.7169 8.44433 17.2829 6.66655 18.3093L4.53186 19.5418C4.79214 20.3818 5.14942 21.2062 5.60769 22C6.06594 22.7937 6.60118 23.5152 7.19851 24.1606L9.33326 22.9281C11.111 21.9017 13.3333 23.1847 13.3333 25.2375V27.7C15.0665 28.0954 16.8897 28.1086 18.6667 27.7031V25.2377C18.6667 23.1849 20.8889 21.9018 22.6667 22.9282L24.8019 24.161C26.0416 22.8249 26.9417 21.2393 27.4659 19.5405L25.3333 18.3093C23.5556 17.2829 23.5556 14.7169 25.3333 13.6905L27.4681 12.458C27.2079 11.618 26.8505 10.7936 26.3923 9.99993C25.934 9.20619 25.3988 8.48461 24.8015 7.83917L22.6667 9.07165C20.8889 10.098 18.6667 8.81505 18.6667 6.76225V4.29994C16.9335 3.90446 15.1101 3.89121 13.3333 4.29671V6.76222C13.3333 8.81502 11.111 10.098 9.33326 9.07162L7.19807 7.83887Z" stroke="#969696" stroke-width="2" stroke-linejoin="round"/>
</g>
</g>
<defs>
<clipPath id="clip0_7_13">
<rect width="32" height="32" fill="white"/>
</clipPath>
</defs>
</svg>
