<svg width="200" height="200" viewBox="0 0 200 200" fill="none" xmlns="http://www.w3.org/2000/svg">
<path d="M199.583 100.515C199.335 188.851 91.7802 232.132 30.3284 170.68C-32.4582 108.504 11.7193 0.853271 100.17 0.853271C157.827 0.853271 199.717 48.3865 199.583 100.515Z" fill="url(#paint0_radial_33_518)"/>
<g opacity="0.5">
<path d="M198.973 90.3141C197.123 90.1615 194.95 90.1615 192.528 90.4856C185.111 91.458 173.748 95.6718 161.736 110.258C159.829 112.584 158.056 114.777 156.321 116.912C137.082 140.726 128.293 151.613 70.902 156.819C52.7696 158.458 40.2238 164.522 31.5294 171.881C31.1099 171.481 30.7095 171.1 30.3091 170.68C39.2132 163.092 52.1214 156.819 70.7495 155.141C127.416 149.993 135.5 140.002 155.005 115.844C156.721 113.709 158.494 111.516 160.42 109.19C172.832 94.1083 184.673 89.7802 192.414 88.7887C194.778 88.4836 196.914 88.4646 198.763 88.5981C198.858 89.1701 198.935 89.7421 198.973 90.3141Z" fill="#FFED9F"/>
<path d="M198.458 114.243C198.382 114.796 198.306 115.349 198.211 115.883C189.383 115.749 181.508 119.353 174.701 126.655C170.736 130.907 167.342 134.892 164.348 138.4C149.61 155.675 140.706 166.104 96.9476 173.159C79.9973 175.885 67.5277 181.834 59.8057 190.834C59.2718 190.605 58.738 190.357 58.2041 190.109C66.174 180.595 79.1012 174.322 96.6807 171.5C139.829 164.541 148.084 154.874 163.071 137.314C166.083 133.786 169.496 129.782 173.481 125.511C181.68 116.683 190.622 114.09 198.458 114.243Z" fill="#FFED9F"/>
<path d="M192.033 137.866C191.785 138.458 191.537 139.068 191.27 139.659C184.158 140.86 178.057 144.597 173.042 150.87C159.391 167.935 150.334 176.743 126.367 183.874C110.16 188.679 103.316 194.704 100.475 199.414H100.17C99.6166 199.414 99.0827 199.414 98.5298 199.395C102.248 192.302 111.438 186.525 125.871 182.235C149.381 175.256 158.285 166.581 171.708 149.802C178 141.966 185.34 138.801 192.033 137.866Z" fill="#FFED9F"/>
<path d="M95.6887 111.974C89.4539 122.823 73.8384 126.941 50.7296 131.994C30.7286 136.36 20.5661 145.188 15.5134 151.995C15.1893 151.461 14.8651 150.927 14.541 150.393C14.9986 149.783 15.5134 149.173 16.0663 148.525C21.2906 142.5 31.4913 134.473 50.3673 130.335C73.0376 125.378 88.329 121.355 94.2206 111.135C97.9768 104.576 97.8242 95.6147 93.744 82.9163C90.2929 72.2008 85.1068 61.4473 80.1113 51.0559C72.6181 35.4784 65.3728 20.4539 64.9152 7.31698C65.4872 7.10724 66.0401 6.89748 66.6121 6.68774C66.8599 19.6149 74.1053 34.6776 81.6366 50.3123C86.6702 60.7608 91.8754 71.5526 95.3646 82.4015C99.5974 95.5766 99.7118 104.976 95.6887 111.974Z" fill="#FFED9F"/>
<path d="M73.438 95.3476C69.4912 102.784 57.2313 105.834 35.991 108.866C20.547 111.078 10.0413 116.226 3.1582 121.259C3.02473 120.63 2.89128 119.982 2.75781 119.353C9.83155 114.357 20.3754 109.381 35.7431 107.188C55.9538 104.309 68.3471 101.316 71.9317 94.5469C74.2578 90.1425 73.171 83.7933 68.3852 73.993C67.3366 71.8575 66.307 69.7792 65.3155 67.7582C56.297 49.6067 48.9373 34.7919 51.3969 13.647C52.007 13.3038 52.5981 12.9606 53.2273 12.6365C50.3673 33.8195 57.441 48.0814 66.8409 66.9955C67.8514 69.0166 68.881 71.0949 69.9296 73.2303C74.9632 83.6026 76.0501 90.4094 73.438 95.3476Z" fill="#FFED9F"/>
<path d="M28.4027 81.0287C26.1719 81.8867 23.6551 82.8591 20.9667 83.984C10.7661 88.3121 4.49315 92.9835 0.96582 96.282C0.984887 95.4812 1.0421 94.6804 1.0993 93.8796C4.89357 90.6001 10.9949 86.3864 20.3185 82.4396C23.0259 81.2956 25.5618 80.3232 27.8117 79.4652C41.1583 74.3553 46.6877 72.2389 42.9506 51.2084C40.4719 37.2516 41.0058 26.5552 42.0354 19.6721C42.6837 19.1954 43.332 18.7379 43.9993 18.2803C42.8553 24.9155 41.9782 36.1076 44.6094 50.9224C48.5943 73.3067 41.8447 75.8997 28.4027 81.0287Z" fill="#FFED9F"/>
<path d="M27.4879 55.1551C23.2361 61.7141 14.5226 64.0212 7.37256 64.7648C7.60136 64.1546 7.84923 63.5445 8.0971 62.9343C14.7132 62.1335 22.378 59.9218 26.077 54.2209C29.1848 49.4352 29.0705 42.7999 25.7147 34.4487C26.1342 33.972 26.5346 33.5145 26.9731 33.0569C30.8436 42.3233 31.0153 49.7402 27.4879 55.1551Z" fill="#FFED9F"/>
<path d="M197.238 79.1791C182.137 76.1666 175.788 66.4616 169.61 57.0427C168.295 55.0216 166.922 52.9434 165.511 50.9986C164.443 49.5304 163.433 48.0432 162.479 46.6132C155.405 36.1647 148.713 26.2881 114.736 20.8732C98.377 18.2611 87.0133 13.0177 80.9883 5.25759C80.3972 4.49492 79.9014 3.75136 79.4629 3.02682C80.054 2.89336 80.6451 2.77895 81.2361 2.66455C81.5793 3.21748 81.9797 3.77043 82.4183 4.34243C86.4032 9.39509 95.2883 16.0684 115.003 19.2144C149.705 24.7437 156.588 34.9063 163.871 45.6789C164.824 47.0899 165.816 48.558 166.884 50.0071C168.333 51.99 169.705 54.0874 171.04 56.1275C176.894 65.0698 182.919 74.2598 196.856 77.3486C196.971 77.9397 197.123 78.5499 197.238 79.1791Z" fill="#FFED9F"/>
<path d="M190.183 58.1677C179.716 55.3077 174.015 48.0433 168.028 40.4166C161.278 31.8366 153.652 22.1126 137.712 16.8884C120.743 11.3209 112.563 5.56278 108.616 1.21558C109.493 1.29184 110.389 1.36814 111.267 1.48254C115.404 5.3912 123.278 10.3867 138.227 15.2868C154.643 20.6636 162.46 30.6164 169.344 39.3871C175.083 46.6896 180.192 53.1913 189.192 56.1276C189.535 56.7949 189.859 57.4813 190.183 58.1677Z" fill="#FFED9F"/>
<path d="M164.195 75.1561C160.973 59.0066 138.608 35.7643 118.207 27.2987C107.739 22.9706 98.8158 22.9516 92.3903 27.2225C88.4435 29.8537 91.2844 37.9761 95.6125 50.255C97.5764 55.8225 99.7882 62.1145 101.638 68.7687C103.106 74.0502 104.04 79.9228 104.955 85.5856C107.625 102.174 110.141 117.846 124.918 119.581C125.814 119.696 126.729 119.734 127.645 119.734C136.492 119.734 146.311 114.929 153.861 106.73C162.422 97.445 166.293 85.6428 164.195 75.1561ZM152.603 105.587C144.614 114.243 134.089 118.952 125.109 117.904C111.59 116.321 109.169 101.258 106.614 85.3187C105.699 79.5987 104.745 73.688 103.258 68.3112C101.39 61.5997 99.159 55.2696 97.1951 49.6831C93.5724 39.4061 90.4455 30.5401 93.3055 28.6334C100.799 23.638 110.618 26.0022 117.539 28.8622C137.159 36.9846 159.448 60.0935 162.518 75.4803C164.52 85.4331 160.802 96.7015 152.603 105.587Z" fill="#FFED9F"/>
<path d="M146.883 58.797C136.835 46.9947 121.2 35.5547 108.082 35.5547C107.453 35.5547 106.862 35.5738 106.252 35.631C105.032 35.7263 104.116 36.3364 103.602 37.347C100.513 43.4102 112.544 63.5255 112.658 63.7161C115.69 68.7688 116.262 75.9379 116.796 82.8782C117.597 93.1742 118.359 102.898 127.397 103.718C128.312 103.794 129.227 103.852 130.123 103.852C143.203 103.852 154.586 95.2906 157.751 82.6494C159.067 77.3679 154.91 68.2159 146.883 58.797ZM156.111 82.2299C152.927 94.9092 140.915 103.241 127.53 102.021C119.904 101.335 119.236 92.7166 118.455 82.7447C117.902 75.6138 117.33 68.2349 114.069 62.8391C109.207 54.7739 103.201 41.7704 105.07 38.1096C105.337 37.6139 105.737 37.3469 106.366 37.3088C119.255 36.222 135.348 47.8527 145.586 59.8838C153.156 68.7688 157.293 77.5395 156.111 82.2299Z" fill="#FFED9F"/>
<path d="M143.184 78.0351C142.364 69.3026 132.64 56.4326 125.014 56.4326C124.289 56.4326 123.87 56.7948 123.641 57.0999C122.726 58.3202 123.412 60.7416 124.804 65.2604C125.719 68.2158 126.749 71.5715 126.977 74.279C127.073 75.3658 127.073 76.4526 127.092 77.5013C127.13 80.5138 127.187 83.3547 129.17 84.9754C130.219 85.8334 131.706 86.2529 133.708 86.2529C134.966 86.2529 136.434 86.0813 138.112 85.7762C141.792 85.0326 143.584 82.3061 143.184 78.0351ZM137.826 84.0793C133.994 84.8038 131.515 84.6703 130.257 83.6407C128.884 82.5158 128.846 80.1706 128.808 77.4441C128.789 76.3763 128.77 75.2705 128.674 74.1265C128.446 71.2283 127.378 67.7772 126.424 64.7266C125.7 62.3623 124.594 58.8159 124.975 58.1104H124.994C131.63 58.1104 140.763 70.4466 141.487 78.1876C141.811 81.5624 140.572 83.5454 137.826 84.0793Z" fill="#FFED9F"/>
</g>
<path opacity="0.65" d="M197.886 118.399C196.532 125.53 194.34 132.661 191.289 139.678C163.547 203.532 79.5584 219.91 30.3474 170.699C0.279239 140.917 -5.25009 100.686 6.87631 66.843C16.9435 90.2378 33.1692 125.32 90.598 143.014C131.42 155.579 178.019 144.692 197.886 118.399Z" fill="url(#paint1_linear_33_518)"/>
<path opacity="0.65" d="M199.583 100.515C199.564 106.425 199.011 112.412 197.867 118.399C196.514 125.53 194.321 132.661 191.27 139.678C163.528 203.532 79.5395 219.91 30.3285 170.699C24.475 164.903 19.5558 158.706 15.5137 152.243C154.433 215.429 198.344 96.2056 198.344 96.2056L199.583 100.515Z" fill="url(#paint2_linear_33_518)"/>
<defs>
<radialGradient id="paint0_radial_33_518" cx="0" cy="0" r="1" gradientUnits="userSpaceOnUse" gradientTransform="translate(101.92 62.0754) scale(99.3385 99.3385)">
<stop stop-color="#FFD83D"/>
<stop offset="1" stop-color="#FC7B24"/>
</radialGradient>
<linearGradient id="paint1_linear_33_518" x1="84.5243" y1="201.009" x2="99.755" y2="103.421" gradientUnits="userSpaceOnUse">
<stop stop-color="#E04127"/>
<stop offset="1" stop-color="#E04127" stop-opacity="0.1"/>
</linearGradient>
<linearGradient id="paint2_linear_33_518" x1="127.211" y1="206.37" x2="102.674" y2="106.53" gradientUnits="userSpaceOnUse">
<stop stop-color="#C22C27"/>
<stop offset="1" stop-color="#D33127" stop-opacity="0.2"/>
</linearGradient>
</defs>
</svg>
